<?xml version="1.0" encoding="utf-8"?>
<!-- Generator: Adobe Illustrator 18.1.1, SVG Export Plug-In . SVG Version: 6.00 Build 0)  -->
<!DOCTYPE svg PUBLIC "-//W3C//DTD SVG 1.1//EN" "http://www.w3.org/Graphics/SVG/1.1/DTD/svg11.dtd">
<svg version="1.1" id="Layer_1" xmlns="http://www.w3.org/2000/svg" xmlns:xlink="http://www.w3.org/1999/xlink" x="0px" y="0px"
	 viewBox="0 0 623.6 623.6" enable-background="new 0 0 623.6 623.6" xml:space="preserve">
<path fill="#FFFFFF" d="M355.5,190.2c-42.6,0-78,35.3-78,78c0,17.7,6.2,34.3,15.6,46.8l-23.9,23.9l-3.1-3.1l-79,79l18.7,18.7l79-79
	l-3.1-3.1l23.9-23.9c13.5,11.4,31.2,18.7,50.9,18.7c42.6,0,78-35.3,78-78S399.1,190.2,355.5,190.2z M355.5,329.5
	c-33.3,0-61.3-27-61.3-61.3s28.1-60.3,61.3-60.3s61.3,27,61.3,61.3S389.8,329.5,355.5,329.5z"/>
</svg>
