<?xml version="1.0" encoding="utf-8"?>
<!-- Generator: Adobe Illustrator 18.1.1, SVG Export Plug-In . SVG Version: 6.00 Build 0)  -->
<!DOCTYPE svg PUBLIC "-//W3C//DTD SVG 1.1//EN" "http://www.w3.org/Graphics/SVG/1.1/DTD/svg11.dtd">
<svg version="1.1" id="Layer_1" xmlns="http://www.w3.org/2000/svg" xmlns:xlink="http://www.w3.org/1999/xlink" x="0px" y="0px"
	 viewBox="0 0 623.6 623.6" enable-background="new 0 0 623.6 623.6" xml:space="preserve">
<g>
	<path fill="#FFFFFF" d="M175.7,254.6V369h-11.4V254.6H175.7z"/>
	<path fill="#FFFFFF" d="M223.5,254.6c8.3,16.6,17.7,33.3,26,49.9c8.3,16.6,15.6,34.3,22.9,50.9c-2.1-17.7-2.1-26-2.1-58.2
		c0-14.6,0-28.1,0-42.6h11.4V369h-11.4c-7.3-14.6-14.6-29.1-21.8-43.7c-6.2-11.4-12.5-23.9-18.7-35.3c-5.2-10.4-9.4-19.7-14.6-30.1
		c1,17.7,1,35.3,2.1,52c0,18.7,0,38.5,0,57.2h-10.4V254.6H223.5z"/>
	<path fill="#FFFFFF" d="M369,254.6V265h-46.8v39.5h34.3v9.4h-34.3V369h-10.4V254.6H369z"/>
	<path fill="#FFFFFF" d="M403.3,256.7c3.1-2.1,9.4-4.2,17.7-4.2c3.1,0,8.3,0,14.6,3.1c11.4,5.2,18.7,16.6,21.8,28.1
		c2.1,5.2,4.2,16.6,4.2,31.2c0,6.2,0,32.2-18.7,47.8c-9.4,7.3-18.7,8.3-22.9,8.3c-7.3,0-18.7-1-28.1-14.6
		c-6.2-8.3-12.5-21.8-12.5-46.8C379.4,305.6,379.4,269.2,403.3,256.7z M397,345.1c6.2,13.5,17.7,16.6,22.9,16.6
		c5.2,0,14.6-2.1,21.8-12.5c4.2-7.3,8.3-17.7,8.3-35.3c0-11.4-2.1-23.9-6.2-34.3c-1-2.1-3.1-6.2-7.3-9.4c-2.1-2.1-8.3-7.3-16.6-7.3
		c-6.2,0-15.6,2.1-22.9,14.6c-6.2,10.4-7.3,23.9-7.3,35.3C391.8,328.4,393.9,337.8,397,345.1z"/>
</g>
</svg>
