<?xml version="1.0" encoding="utf-8"?>
<!-- Generator: Adobe Illustrator 18.1.1, SVG Export Plug-In . SVG Version: 6.00 Build 0)  -->
<!DOCTYPE svg PUBLIC "-//W3C//DTD SVG 1.1//EN" "http://www.w3.org/Graphics/SVG/1.1/DTD/svg11.dtd">
<svg version="1.1" id="Layer_1" xmlns="http://www.w3.org/2000/svg" xmlns:xlink="http://www.w3.org/1999/xlink" x="0px" y="0px"
	 viewBox="0 388.9 256 64" enable-background="new 0 388.9 256 64" xml:space="preserve">
<path fill="#05171E" d="M24,431.9c-0.6,0.3-1.2,0.4-1.9,0.5c0.7-0.4,1.2-1,1.4-1.8c-0.6,0.4-1.3,0.6-2.1,0.8c-0.6-0.6-1.5-1-2.4-1
	c-1.8,0-3.3,1.5-3.3,3.3c0,0.3,0,0.5,0.1,0.7c-2.7-0.1-5.1-1.4-6.8-3.4c-0.3,0.5-0.4,1-0.4,1.7c0,1.1,0.6,2.1,1.5,2.7
	c-0.5,0-1-0.2-1.5-0.4l0,0c0,1.6,1.1,2.9,2.6,3.2c-0.4,0.3-1,0.3-1.5,0c0.4,1.3,1.6,2.3,3.1,2.3c-1.1,0.9-2.5,1.4-4.1,1.4
	c-0.3,0-0.5,0-0.8,0c1.5,0.9,3.2,1.5,5,1.5c6,0,9.3-5,9.3-9.3c0-0.1,0-0.3,0-0.4C23,433.2,23.6,432.6,24,431.9z"/>
<path fill="#05171E" d="M77.9,436.9v8h3v-8h2l1-3h-3c0,0,0-0.5,0-1.3c0-0.3,0.2-0.7,0.7-0.7c1,0,2.9,0,2.3,0v-3c0,0-1.6,0-3.3,0
	c-1.7,0-2.7,1.3-2.7,2.8s0,2.3,0,2.3h-2v3h2V436.9z"/>
<path fill="#05171E" d="M112,444.9c-4.4,0-8-3.6-8-8s3.6-8,8-8s8,3.6,8,8S116.4,444.9,112,444.9z M118.7,438
	c-0.2-0.1-2.1-0.6-4.3-0.3c0.9,2.5,1.1,3.7,1.3,4.9C117.4,441.5,118.4,439.9,118.7,438z M114.7,443.2c-0.2-1.2-0.5-2.7-1.5-5.2l0,0
	c-3.9,1.3-5.2,4-5.4,4.3C109.4,443.6,112,444.1,114.7,443.2z M106.9,441.5c1.6-3.1,5.8-4.6,5.9-4.6c-0.2-0.4-0.4-0.8-0.6-1.2
	c-3.4,1-6.7,1-7,1C105.1,438.6,105.8,440.3,106.9,441.5z M105.3,435.5c0.3,0,3.1,0,6.3-0.8c-1.1-2-2.3-3.7-2.5-4
	C107.2,431.6,105.8,433.4,105.3,435.5z M110.4,430.3c0.2,0.3,1.4,1.9,2.5,4c2.4-0.9,3.5-2.3,3.6-2.5
	C115.3,430.7,113,429.8,110.4,430.3z M117.3,432.6c-0.1,0.2-1.3,1.7-3.8,2.7c0.2,0.3,0.4,0.9,0.6,1.4c2.3-0.3,4,0,4.8,0.2
	C118.9,435.1,118.2,433.7,117.3,432.6z"/>
<path fill="#05171E" d="M50.8,438c-0.6,0-1.1,0.7-1.1,1.6c0,0.9,0.5,1.6,1.1,1.6s1.1-0.7,1.1-1.6C51.9,438.7,51.4,438,50.8,438z
	 M54.7,434c0.1-0.3,0.1-2.1-0.6-3.8c0,0-1.6,0.2-4,1.8c-0.5-0.1-1.3-0.2-2.2-0.2s-1.7,0.1-2.2,0.2c-2.4-1.6-4-1.8-4-1.8
	c-0.7,1.7-0.7,3.5-0.6,3.8c-0.6,0.8-1.1,1.9-1.1,3.3c0,6.2,5.2,6.3,6.5,6.3c0.3,0,0.9,0,1.5,0s1.2,0,1.5,0c1.3,0,6.5-0.1,6.5-6.3
	C56,435.9,55.5,434.8,54.7,434z M48,442.9L48,442.9c-3.3,0-5.9-0.4-5.9-3.6c0-0.8,0.3-1.5,0.9-2.1c1.1-1,2.9-0.5,4.9-0.5l0,0l0,0
	c2.1,0,3.9-0.5,4.9,0.5c0.6,0.6,0.9,1.3,0.9,2.1C53.9,442.5,51.3,442.9,48,442.9z M45.2,438c-0.6,0-1.1,0.7-1.1,1.6
	c0,0.9,0.5,1.6,1.1,1.6s1.1-0.7,1.1-1.6C46.4,438.7,45.9,438,45.2,438z"/>
<rect x="0" y="420.9" fill="none" width="32" height="32"/>
<rect x="32" y="420.9" fill="none" width="32" height="32"/>
<rect x="64" y="420.9" fill="none" width="32" height="32"/>
<rect x="96" y="420.9" fill="none" width="32" height="32"/>
<rect x="128" y="420.9" fill="none" width="32" height="32"/>
<rect x="160" y="420.9" fill="none" width="32" height="32"/>
<rect x="192" y="420.9" fill="none" width="32" height="32"/>
<rect x="224" y="420.9" fill="none" width="32" height="32"/>
<g>
	<path fill="#05171E" d="M173.1,431.7c0,0.9-0.8,1.7-1.7,1.7s-1.7-0.8-1.7-1.7s0.7-1.7,1.7-1.7C172.4,430,173.1,430.8,173.1,431.7z
		 M170.1,443.8v-9.4h2.7v9.4H170.1z M176.9,434.4v0.4c1-0.5,2.5-0.4,3.5,0.1c1.1,0.6,1.8,1.9,1.8,3.1v5.8h-2.7V438
		c0-0.3-0.2-0.7-0.5-0.8c-1.1-0.6-2.2,0.5-2.2,0.5v6.1h-2.7v-9.4H176.9L176.9,434.4z"/>
</g>
<g>
	<path fill="#05171E" d="M141.2,432.8c0.4-0.3,0.7-0.7,1-1.2c0.3-0.4,0.4-1,0.5-1.8h2v3.3h3.3v2.5h-3.3v3.6c0,0.8,0,1.3,0.1,1.5
		c0.1,0.2,0.3,0.4,0.6,0.6s0.6,0.3,1,0.3c0.7,0,1.4-0.2,2.1-0.7v2.2c-0.6,0.3-1.1,0.4-1.6,0.6c-0.5,0.1-1,0.2-1.6,0.2
		c-0.7,0-1-0.1-1.5-0.3c-0.5-0.2-0.9-0.4-1.3-0.7c-0.4-0.3-0.6-0.6-0.7-1c-0.2-0.3-0.2-0.8-0.2-1.5v-4.9h-1.9v-2
		C140.1,433.4,140.7,433.2,141.2,432.8z"/>
</g>
<g>
	<g>
		<g>
			<path fill="#05171E" d="M210,429.3h-4.5c-0.6,0-1.2,0.1-1.9,0.2c-0.7,0.2-1.3,0.5-2,1c-0.9,0.9-1.4,1.9-1.4,3
				c0,0.9,0.3,1.7,1,2.4c0.6,0.7,1.5,1.1,2.7,1.1c0.2,0,0.5,0,0.7,0c0,0.1-0.1,0.2-0.1,0.4c-0.1,0.1-0.1,0.3-0.1,0.5
				c0,0.3,0.1,0.6,0.2,0.8c0.1,0.2,0.3,0.5,0.4,0.7c-0.5,0-1.2,0.1-2,0.2s-1.6,0.4-2.3,0.8c-0.6,0.4-1.1,0.8-1.3,1.3
				c-0.3,0.5-0.4,1-0.4,1.4c0,0.9,0.4,1.6,1.2,2.2c0.8,0.7,1.9,1,3.5,1c1.9,0,3.3-0.5,4.3-1.3c1-0.8,1.4-1.8,1.4-2.9
				c0-0.8-0.2-1.4-0.5-1.9c-0.4-0.5-0.8-0.9-1.2-1.3l-0.8-0.6c-0.1-0.1-0.2-0.2-0.3-0.4c-0.1-0.2-0.2-0.3-0.2-0.6
				c0-0.2,0.1-0.5,0.2-0.6c0.1-0.2,0.2-0.3,0.4-0.5c0.2-0.2,0.5-0.4,0.7-0.6c0.2-0.2,0.4-0.4,0.5-0.6c0.3-0.5,0.5-1.1,0.5-1.9
				c0-0.4,0-0.8-0.1-1.2c-0.1-0.3-0.3-0.6-0.4-0.9c-0.2-0.3-0.3-0.5-0.5-0.6c-0.2-0.2-0.3-0.3-0.5-0.4h1.4L210,429.3z M207.6,441.6
				c0.4,0.4,0.6,0.9,0.6,1.5c0,0.7-0.3,1.3-0.8,1.7c-0.6,0.5-1.4,0.7-2.4,0.7c-1.2,0-2.1-0.3-2.8-0.8s-1.1-1.2-1.1-2
				c0-0.4,0.1-0.7,0.2-1c0.1-0.3,0.3-0.5,0.5-0.7c0.2-0.2,0.4-0.3,0.6-0.4c0.2-0.1,0.4-0.2,0.5-0.2c0.5-0.1,1-0.3,1.4-0.3
				c0.5,0,0.8-0.1,0.9,0c0.2,0,0.4,0,0.5,0C206.6,440.7,207.2,441.2,207.6,441.6z M206.8,435c-0.1,0.3-0.2,0.6-0.4,0.9
				c-0.4,0.4-0.9,0.6-1.5,0.6c-0.5,0-0.9-0.1-1.2-0.4c-0.4-0.3-0.7-0.6-0.9-1c-0.5-0.9-0.7-1.7-0.7-2.5c0-0.6,0.1-1.2,0.5-1.7
				s0.9-0.7,1.5-0.7c0.5,0,0.9,0.2,1.2,0.4c0.3,0.3,0.6,0.6,0.8,1.1c0.5,0.9,0.7,1.8,0.7,2.7C206.9,434.4,206.9,434.7,206.8,435z
				 M214.5,436.4V434h-1.2v2.4h-2.4v1.2h2.4v2.4h1.2v-2.4h2.4v-1.2H214.5z"/>
		</g>
	</g>
</g>
<path fill="#05171E" d="M235.2,430.4h9.6c0.9,0,1.7,0.7,1.7,1.7v9.6c0,0.9-0.7,1.7-1.7,1.7h-9.6c-0.9,0-1.7-0.7-1.7-1.7v-9.6
	C233.5,431.2,234.3,430.4,235.2,430.4z M243,431.9c-0.3,0-0.6,0.3-0.6,0.6v1.4c0,0.3,0.3,0.6,0.6,0.6h1.5c0.3,0,0.6-0.3,0.6-0.6
	v-1.4c0-0.3-0.3-0.6-0.6-0.6H243z M245,435.9h-1.1c0.1,0.4,0.2,0.7,0.2,1.1c0,2.2-1.8,3.9-4,3.9s-4-1.7-4-3.9c0-0.4,0.1-0.8,0.2-1.1
	h-1.2v5.5c0,0.3,0.2,0.5,0.5,0.5h9c0.3,0,0.5-0.2,0.5-0.5L245,435.9L245,435.9z M240,434.4c-1.4,0-2.6,1.1-2.6,2.5s1.2,2.5,2.6,2.5
	c1.4,0,2.6-1.1,2.6-2.5S241.4,434.4,240,434.4z"/>
<path fill="#FFFFFF" d="M24,399.9c-0.6,0.3-1.2,0.4-1.9,0.5c0.7-0.4,1.2-1,1.4-1.8c-0.6,0.4-1.3,0.6-2.1,0.8c-0.6-0.6-1.5-1-2.4-1
	c-1.8,0-3.3,1.5-3.3,3.3c0,0.3,0,0.5,0.1,0.7c-2.7-0.1-5.1-1.4-6.8-3.4c-0.3,0.5-0.4,1-0.4,1.7c0,1.1,0.6,2.1,1.5,2.7
	c-0.5,0-1-0.2-1.5-0.4l0,0c0,1.6,1.1,2.9,2.6,3.2c-0.4,0.3-1,0.3-1.5,0c0.4,1.3,1.6,2.3,3.1,2.3c-1.1,0.9-2.5,1.4-4.1,1.4
	c-0.3,0-0.5,0-0.8,0c1.5,0.9,3.2,1.5,5,1.5c6,0,9.3-5,9.3-9.3c0-0.1,0-0.3,0-0.4C23,401.2,23.6,400.6,24,399.9z"/>
<path fill="#FFFFFF" d="M77.9,404.9v8h3v-8h2l1-3h-3c0,0,0-0.5,0-1.3c0-0.3,0.2-0.7,0.7-0.7c1,0,2.9,0,2.3,0v-3c0,0-1.6,0-3.3,0
	c-1.7,0-2.7,1.3-2.7,2.8s0,2.3,0,2.3h-2v3h2V404.9z"/>
<path fill="#FFFFFF" d="M112,412.9c-4.4,0-8-3.6-8-8s3.6-8,8-8s8,3.6,8,8S116.4,412.9,112,412.9z M118.7,406
	c-0.2-0.1-2.1-0.6-4.3-0.3c0.9,2.5,1.1,3.7,1.3,4.9C117.4,409.5,118.4,407.9,118.7,406z M114.7,411.2c-0.2-1.2-0.5-2.7-1.5-5.2l0,0
	c-3.9,1.3-5.2,4-5.4,4.3C109.4,411.6,112,412.1,114.7,411.2z M106.9,409.5c1.6-3.1,5.8-4.6,5.9-4.6c-0.2-0.4-0.4-0.8-0.6-1.2
	c-3.4,1-6.7,1-7,1C105.1,406.6,105.8,408.3,106.9,409.5z M105.3,403.5c0.3,0,3.1,0,6.3-0.8c-1.1-2-2.3-3.7-2.5-4
	C107.2,399.6,105.8,401.4,105.3,403.5z M110.4,398.3c0.2,0.3,1.4,1.9,2.5,4c2.4-0.9,3.5-2.3,3.6-2.5
	C115.3,398.7,113,397.8,110.4,398.3z M117.3,400.6c-0.1,0.2-1.3,1.7-3.8,2.7c0.2,0.3,0.4,0.9,0.6,1.4c2.3-0.3,4,0,4.8,0.2
	C118.9,403.1,118.2,401.7,117.3,400.6z"/>
<path fill="#FFFFFF" d="M50.8,406c-0.6,0-1.1,0.7-1.1,1.6c0,0.9,0.5,1.6,1.1,1.6s1.1-0.7,1.1-1.6C51.9,406.7,51.4,406,50.8,406z
	 M54.7,402c0.1-0.3,0.1-2.1-0.6-3.8c0,0-1.6,0.2-4,1.8c-0.5-0.1-1.3-0.2-2.2-0.2s-1.7,0.1-2.2,0.2c-2.4-1.6-4-1.8-4-1.8
	c-0.7,1.7-0.7,3.5-0.6,3.8c-0.6,0.8-1.1,1.9-1.1,3.3c0,6.2,5.2,6.3,6.5,6.3c0.3,0,0.9,0,1.5,0s1.2,0,1.5,0c1.3,0,6.5-0.1,6.5-6.3
	C56,403.9,55.5,402.8,54.7,402z M48,410.9L48,410.9c-3.3,0-5.9-0.4-5.9-3.6c0-0.8,0.3-1.5,0.9-2.1c1.1-1,2.9-0.5,4.9-0.5l0,0l0,0
	c2.1,0,3.9-0.5,4.9,0.5c0.6,0.6,0.9,1.3,0.9,2.1C53.9,410.5,51.3,410.9,48,410.9z M45.2,406c-0.6,0-1.1,0.7-1.1,1.6
	c0,0.9,0.5,1.6,1.1,1.6s1.1-0.7,1.1-1.6C46.4,406.7,45.9,406,45.2,406z"/>
<rect x="0" y="388.9" fill="none" width="32" height="32"/>
<rect x="32" y="388.9" fill="none" width="32" height="32"/>
<rect x="64" y="388.9" fill="none" width="32" height="32"/>
<rect x="96" y="388.9" fill="none" width="32" height="32"/>
<rect x="128" y="388.9" fill="none" width="32" height="32"/>
<rect x="160" y="388.9" fill="none" width="32" height="32"/>
<rect x="192" y="388.9" fill="none" width="32" height="32"/>
<rect x="224" y="388.9" fill="none" width="32" height="32"/>
<g>
	<path fill="#FFFFFF" d="M173.1,399.7c0,0.9-0.8,1.7-1.7,1.7s-1.7-0.8-1.7-1.7s0.7-1.7,1.7-1.7C172.4,398,173.1,398.8,173.1,399.7z
		 M170.1,411.8v-9.4h2.7v9.4H170.1z M176.9,402.4v0.4c1-0.5,2.5-0.4,3.5,0.1c1.1,0.6,1.8,1.9,1.8,3.1v5.8h-2.7V406
		c0-0.3-0.2-0.7-0.5-0.8c-1.1-0.6-2.2,0.5-2.2,0.5v6.1h-2.7v-9.4H176.9L176.9,402.4z"/>
</g>
<g>
	<path fill="#FFFFFF" d="M141.2,400.8c0.4-0.3,0.7-0.7,1-1.2c0.3-0.4,0.4-1,0.5-1.8h2v3.3h3.3v2.5h-3.3v3.6c0,0.8,0,1.3,0.1,1.5
		c0.1,0.2,0.3,0.4,0.6,0.6s0.6,0.3,1,0.3c0.7,0,1.4-0.2,2.1-0.7v2.2c-0.6,0.3-1.1,0.4-1.6,0.6c-0.5,0.1-1,0.2-1.6,0.2
		c-0.7,0-1-0.1-1.5-0.3c-0.5-0.2-0.9-0.4-1.3-0.7c-0.4-0.3-0.6-0.6-0.7-1c-0.2-0.3-0.2-0.8-0.2-1.5v-4.9h-1.9v-2
		C140.1,401.4,140.7,401.2,141.2,400.8z"/>
</g>
<g>
	<g>
		<g>
			<path fill="#FFFFFF" d="M210,397.3h-4.5c-0.6,0-1.2,0.1-1.9,0.2c-0.7,0.2-1.3,0.5-2,1c-0.9,0.9-1.4,1.9-1.4,3
				c0,0.9,0.3,1.7,1,2.4c0.6,0.7,1.5,1.1,2.7,1.1c0.2,0,0.5,0,0.7,0c0,0.1-0.1,0.2-0.1,0.4c-0.1,0.1-0.1,0.3-0.1,0.5
				c0,0.3,0.1,0.6,0.2,0.8c0.1,0.2,0.3,0.5,0.4,0.7c-0.5,0-1.2,0.1-2,0.2s-1.6,0.4-2.3,0.8c-0.6,0.4-1.1,0.8-1.3,1.3
				c-0.3,0.5-0.4,1-0.4,1.4c0,0.9,0.4,1.6,1.2,2.2c0.8,0.7,1.9,1,3.5,1c1.9,0,3.3-0.5,4.3-1.3c1-0.8,1.4-1.8,1.4-2.9
				c0-0.8-0.2-1.4-0.5-1.9c-0.4-0.5-0.8-0.9-1.2-1.3l-0.8-0.6c-0.1-0.1-0.2-0.2-0.3-0.4c-0.1-0.2-0.2-0.3-0.2-0.6
				c0-0.2,0.1-0.5,0.2-0.6c0.1-0.2,0.2-0.3,0.4-0.5c0.2-0.2,0.5-0.4,0.7-0.6c0.2-0.2,0.4-0.4,0.5-0.6c0.3-0.5,0.5-1.1,0.5-1.9
				c0-0.4,0-0.8-0.1-1.2c-0.1-0.3-0.3-0.6-0.4-0.9c-0.2-0.3-0.3-0.5-0.5-0.6c-0.2-0.2-0.3-0.3-0.5-0.4h1.4L210,397.3z M207.6,409.6
				c0.4,0.4,0.6,0.9,0.6,1.5c0,0.7-0.3,1.3-0.8,1.7c-0.6,0.5-1.4,0.7-2.4,0.7c-1.2,0-2.1-0.3-2.8-0.8s-1.1-1.2-1.1-2
				c0-0.4,0.1-0.7,0.2-1c0.1-0.3,0.3-0.5,0.5-0.7c0.2-0.2,0.4-0.3,0.6-0.4c0.2-0.1,0.4-0.2,0.5-0.2c0.5-0.1,1-0.3,1.4-0.3
				c0.5,0,0.8-0.1,0.9,0c0.2,0,0.4,0,0.5,0C206.6,408.7,207.2,409.2,207.6,409.6z M206.8,403c-0.1,0.3-0.2,0.6-0.4,0.9
				c-0.4,0.4-0.9,0.6-1.5,0.6c-0.5,0-0.9-0.1-1.2-0.4c-0.4-0.3-0.7-0.6-0.9-1c-0.5-0.9-0.7-1.7-0.7-2.5c0-0.6,0.1-1.2,0.5-1.7
				s0.9-0.7,1.5-0.7c0.5,0,0.9,0.2,1.2,0.4c0.3,0.3,0.6,0.6,0.8,1.1c0.5,0.9,0.7,1.8,0.7,2.7C206.9,402.4,206.9,402.7,206.8,403z
				 M214.5,404.4V402h-1.2v2.4h-2.4v1.2h2.4v2.4h1.2v-2.4h2.4v-1.2H214.5z"/>
		</g>
	</g>
</g>
<path fill="#FFFFFF" d="M235.2,398.4h9.6c0.9,0,1.7,0.7,1.7,1.7v9.6c0,0.9-0.7,1.7-1.7,1.7h-9.6c-0.9,0-1.7-0.7-1.7-1.7v-9.6
	C233.5,399.2,234.3,398.4,235.2,398.4z M243,399.9c-0.3,0-0.6,0.3-0.6,0.6v1.4c0,0.3,0.3,0.6,0.6,0.6h1.5c0.3,0,0.6-0.3,0.6-0.6
	v-1.4c0-0.3-0.3-0.6-0.6-0.6H243z M245,403.9h-1.1c0.1,0.4,0.2,0.7,0.2,1.1c0,2.2-1.8,3.9-4,3.9s-4-1.7-4-3.9c0-0.4,0.1-0.8,0.2-1.1
	h-1.2v5.5c0,0.3,0.2,0.5,0.5,0.5h9c0.3,0,0.5-0.2,0.5-0.5L245,403.9L245,403.9z M240,402.4c-1.4,0-2.6,1.1-2.6,2.5s1.2,2.5,2.6,2.5
	c1.4,0,2.6-1.1,2.6-2.5S241.4,402.4,240,402.4z"/>
</svg>
