<?xml version="1.0" encoding="utf-8"?>
<!-- Generator: Adobe Illustrator 18.1.0, SVG Export Plug-In . SVG Version: 6.00 Build 0)  -->
<svg version="1.1" id="Layer_1" xmlns="http://www.w3.org/2000/svg" xmlns:xlink="http://www.w3.org/1999/xlink" x="0px" y="0px"
	 viewBox="-165 376.9 264 88" enable-background="new -165 376.9 264 88" xml:space="preserve">
<rect x="-165" y="376.9" fill="none" width="44" height="44"/>
<rect x="-121" y="376.9" fill="none" width="44" height="44"/>
<rect x="-77" y="376.9" fill="none" width="44" height="44"/>
<rect x="-165" y="420.9" fill="none" width="44" height="44"/>
<rect x="-121" y="420.9" fill="none" width="44" height="44"/>
<rect x="-77" y="420.9" fill="none" width="44" height="44"/>
<rect x="-33" y="420.9" fill="none" width="44" height="44"/>
<rect x="-33" y="376.9" fill="none" width="44" height="44"/>
<title>default-skin 2</title>
<g>
	<g>
		<path id="Shape" fill="#FFFFFF" d="M-98,436.4v3.8c-6.3,0.8-9.2,5.8-10,9.7c2.2-2.8,5.6-5.1,10-5.1v3.6l6-5.9L-98,436.4z"/>
		<g>
			<path id="Shape_1_" fill="#FFFFFF" d="M-152,405.9v-5h2v3h3v2H-152z M-152,391.9h5v2h-3v3h-2V391.9z M-134,391.9v5h-2v-3h-3v-2
				H-134z M-134,405.9h-5v-2h3v-3h2V405.9z"/>
		</g>
		<g>
			<path fill="#FFFFFF" d="M-103,400.9v5h-2v-3h-3v-2H-103z M-103,396.9h-5v-2h3v-3h2V396.9z M-95,396.9v-5h2v3h3v2H-95z M-95,400.9
				h5v2h-3v3h-2V400.9z"/>
		</g>
		<path fill="#FFFFFF" d="M-144.4,442.9l-5.7-5.7l1.4-1.4l5.7,5.7l5.7-5.7l1.4,1.4l-5.7,5.7l5.7,5.7l-1.4,1.4l-5.7-5.7l-5.7,5.7
			l-1.4-1.4L-144.4,442.9z"/>
		<g>
			<path fill="#FFFFFF" d="M-48,395.9h-6v-1.2h6V395.9z"/>
		</g>
		<g>
			<path fill="#FFFFFF" d="M-51.6,398.3v-6h1.2v6H-51.6z"/>
		</g>
	</g>
</g>
<polygon fill="#FFFFFF" points="-58.9,443.6 -60.1,442.3 -53.8,435.9 -60.1,429.5 -58.9,428.3 -51.2,435.9 "/>
<polygon fill="#FFFFFF" points="-14.8,435.9 -7.1,428.3 -5.9,429.5 -12.2,435.9 -5.9,442.3 -7.1,443.6 "/>
<path fill="#FFFFFF" d="M-51,387.9c-3.8,0-7,3.2-7,7c0,1.6,0.6,3.1,1.4,4.2l-2.2,2.2L-59,401l-7.1,7.1l1.7,1.7l7.1-7.1l-0.3-0.3
	l2.2-2.2c1.2,1,2.8,1.7,4.6,1.7c3.8,0,7-3.2,7-7C-43.9,391.1-47,387.9-51,387.9z M-51,400.5c-3,0-5.5-2.4-5.5-5.5
	c0-3.1,2.5-5.4,5.5-5.4c3,0,5.5,2.4,5.5,5.5C-45.5,398.1-47.9,400.5-51,400.5z"/>
<g>
	<path fill="#FFFFFF" d="M-3.9,395.9h-6v-1.2h6V395.9z"/>
</g>
<path fill="#FFFFFF" d="M-7,387.9c-3.8,0-7,3.2-7,7c0,1.6,0.6,3.1,1.4,4.2l-2.2,2.2L-15,401l-7.1,7.1l1.7,1.7l7.1-7.1l-0.3-0.3
	l2.2-2.2c1.2,1,2.8,1.7,4.6,1.7c3.8,0,7-3.2,7-7C0.1,391.1-3,387.9-7,387.9z M-7,400.5c-3,0-5.5-2.4-5.5-5.5c0-3.1,2.5-5.4,5.5-5.4
	s5.5,2.4,5.5,5.5C-1.5,398.1-3.9,400.5-7,400.5z"/>
</svg>
