<?xml version="1.0" encoding="utf-8"?>
<!-- Generator: Adobe Illustrator 18.1.1, SVG Export Plug-In . SVG Version: 6.00 Build 0)  -->
<!DOCTYPE svg PUBLIC "-//W3C//DTD SVG 1.1//EN" "http://www.w3.org/Graphics/SVG/1.1/DTD/svg11.dtd">
<svg version="1.1" id="Layer_1" xmlns="http://www.w3.org/2000/svg" xmlns:xlink="http://www.w3.org/1999/xlink" x="0px" y="0px"
	 viewBox="0 0 60 60" enable-background="new 0 0 60 60" xml:space="preserve">
<g>
	<path fill="#09181F" d="M16.9,24.5v11h-1.1v-11H16.9z"/>
	<path fill="#09181F" d="M21.5,24.5c0.8,1.6,1.7,3.2,2.5,4.8c0.8,1.6,1.5,3.3,2.2,4.9C26,32.5,26,31.7,26,28.6c0-1.4,0-2.7,0-4.1
		h1.1v11H26c-0.7-1.4-1.4-2.8-2.1-4.2c-0.6-1.1-1.2-2.3-1.8-3.4c-0.5-1-0.9-1.9-1.4-2.9c0.1,1.7,0.1,3.4,0.2,5c0,1.8,0,3.7,0,5.5h-1
		v-11L21.5,24.5z"/>
	<path fill="#09181F" d="M35.5,24.5v1h-4.5v3.8h3.3v0.9H31v5.3H30v-11H35.5z"/>
	<path fill="#09181F" d="M38.8,24.7c0.3-0.2,0.9-0.4,1.7-0.4c0.3,0,0.8,0,1.4,0.3c1.1,0.5,1.8,1.6,2.1,2.7c0.2,0.5,0.4,1.6,0.4,3
		c0,0.6,0,3.1-1.8,4.6c-0.9,0.7-1.8,0.8-2.2,0.8c-0.7,0-1.8-0.1-2.7-1.4c-0.6-0.8-1.2-2.1-1.2-4.5C36.5,29.4,36.5,25.9,38.8,24.7z
		 M38.2,33.2c0.6,1.3,1.7,1.6,2.2,1.6c0.5,0,1.4-0.2,2.1-1.2c0.4-0.7,0.8-1.7,0.8-3.4c0-1.1-0.2-2.3-0.6-3.3
		c-0.1-0.2-0.3-0.6-0.7-0.9c-0.2-0.2-0.8-0.7-1.6-0.7c-0.6,0-1.5,0.2-2.2,1.4c-0.6,1-0.7,2.3-0.7,3.4C37.7,31.6,37.9,32.5,38.2,33.2
		z"/>
</g>
</svg>
