<?xml version="1.0" encoding="utf-8"?>
<!-- Generator: Adobe Illustrator 18.1.1, SVG Export Plug-In . SVG Version: 6.00 Build 0)  -->
<!DOCTYPE svg PUBLIC "-//W3C//DTD SVG 1.1//EN" "http://www.w3.org/Graphics/SVG/1.1/DTD/svg11.dtd">
<svg version="1.1" id="Layer_1" xmlns="http://www.w3.org/2000/svg" xmlns:xlink="http://www.w3.org/1999/xlink" x="0px" y="0px"
	 viewBox="-361 126 256 64" enable-background="new -361 126 256 64" xml:space="preserve">
<path fill="#05171E" d="M-337,137c-0.6,0.3-1.2,0.4-1.9,0.5c0.7-0.4,1.2-1,1.4-1.8c-0.6,0.4-1.3,0.6-2.1,0.8c-0.6-0.6-1.5-1-2.4-1
	c-1.8,0-3.3,1.5-3.3,3.3c0,0.3,0,0.5,0.1,0.7c-2.7-0.1-5.1-1.4-6.8-3.4c-0.3,0.5-0.4,1-0.4,1.7c0,1.1,0.6,2.1,1.5,2.7
	c-0.5,0-1-0.2-1.5-0.4l0,0c0,1.6,1.1,2.9,2.6,3.2c-0.4,0.3-1,0.3-1.5,0c0.4,1.3,1.6,2.3,3.1,2.3c-1.1,0.9-2.5,1.4-4.1,1.4
	c-0.3,0-0.5,0-0.8,0c1.5,0.9,3.2,1.5,5,1.5c6,0,9.3-5,9.3-9.3c0-0.1,0-0.3,0-0.4C-338,138.3-337.4,137.7-337,137z"/>
<path fill="#05171E" d="M-283.1,142v8h3v-8h2l1-3h-3c0,0,0-0.5,0-1.3c0-0.3,0.2-0.7,0.7-0.7c1,0,2.9,0,2.3,0v-3c0,0-1.6,0-3.3,0
	c-1.7,0-2.7,1.3-2.7,2.8s0,2.3,0,2.3h-2v3h2V142z"/>
<path fill="#05171E" d="M-249,150c-4.4,0-8-3.6-8-8s3.6-8,8-8s8,3.6,8,8S-244.6,150-249,150z M-242.3,143.1
	c-0.2-0.1-2.1-0.6-4.3-0.3c0.9,2.5,1.1,3.7,1.3,4.9C-243.6,146.6-242.6,145-242.3,143.1z M-246.3,148.3c-0.2-1.2-0.5-2.7-1.5-5.2
	l0,0c-3.9,1.3-5.2,4-5.4,4.3C-251.6,148.7-249,149.2-246.3,148.3z M-254.1,146.6c1.6-3.1,5.8-4.6,5.9-4.6c-0.2-0.4-0.4-0.8-0.6-1.2
	c-3.4,1-6.7,1-7,1C-255.9,143.7-255.2,145.4-254.1,146.6z M-255.7,140.6c0.3,0,3.1,0,6.3-0.8c-1.1-2-2.3-3.7-2.5-4
	C-253.8,136.7-255.2,138.5-255.7,140.6z M-250.6,135.4c0.2,0.3,1.4,1.9,2.5,4c2.4-0.9,3.5-2.3,3.6-2.5
	C-245.7,135.8-248,134.9-250.6,135.4z M-243.7,137.7c-0.1,0.2-1.3,1.7-3.8,2.7c0.2,0.3,0.4,0.9,0.6,1.4c2.3-0.3,4,0,4.8,0.2
	C-242.1,140.2-242.8,138.8-243.7,137.7z"/>
<path fill="#05171E" d="M-310.2,143.1c-0.6,0-1.1,0.7-1.1,1.6c0,0.9,0.5,1.6,1.1,1.6c0.6,0,1.1-0.7,1.1-1.6
	C-309.1,143.8-309.6,143.1-310.2,143.1z M-306.3,139.1c0.1-0.3,0.1-2.1-0.6-3.8c0,0-1.6,0.2-4,1.8c-0.5-0.1-1.3-0.2-2.2-0.2
	s-1.7,0.1-2.2,0.2c-2.4-1.6-4-1.8-4-1.8c-0.7,1.7-0.7,3.5-0.6,3.8c-0.6,0.8-1.1,1.9-1.1,3.3c0,6.2,5.2,6.3,6.5,6.3
	c0.3,0,0.9,0,1.5,0s1.2,0,1.5,0c1.3,0,6.5-0.1,6.5-6.3C-305,141-305.5,139.9-306.3,139.1z M-313,148L-313,148
	c-3.3,0-5.9-0.4-5.9-3.6c0-0.8,0.3-1.5,0.9-2.1c1.1-1,2.9-0.5,4.9-0.5l0,0l0,0c2.1,0,3.9-0.5,4.9,0.5c0.6,0.6,0.9,1.3,0.9,2.1
	C-307.1,147.6-309.7,148-313,148z M-315.8,143.1c-0.6,0-1.1,0.7-1.1,1.6c0,0.9,0.5,1.6,1.1,1.6c0.6,0,1.1-0.7,1.1-1.6
	C-314.6,143.8-315.1,143.1-315.8,143.1z"/>
<rect x="-361" y="126" fill="none" width="32" height="32"/>
<rect x="-329" y="126" fill="none" width="32" height="32"/>
<rect x="-297" y="126" fill="none" width="32" height="32"/>
<rect x="-265" y="126" fill="none" width="32" height="32"/>
<rect x="-233" y="126" fill="none" width="32" height="32"/>
<rect x="-201" y="126" fill="none" width="32" height="32"/>
<rect x="-169" y="126" fill="none" width="32" height="32"/>
<rect x="-137" y="126" fill="none" width="32" height="32"/>
<g>
	<path fill="#05171E" d="M-187.9,136.8c0,0.9-0.8,1.7-1.7,1.7c-0.9,0-1.7-0.8-1.7-1.7s0.7-1.7,1.7-1.7
		C-188.6,135.1-187.9,135.9-187.9,136.8z M-190.9,148.9v-9.4h2.7v9.4H-190.9z M-184.1,139.5v0.4c1-0.5,2.5-0.4,3.5,0.1
		c1.1,0.6,1.8,1.9,1.8,3.1v5.8h-2.7v-5.8c0-0.3-0.2-0.7-0.5-0.8c-1.1-0.6-2.2,0.5-2.2,0.5v6.1h-2.7v-9.4H-184.1z"/>
</g>
<g>
	<path fill="#05171E" d="M-219.8,137.9c0.4-0.3,0.7-0.7,1-1.2c0.3-0.4,0.4-1,0.5-1.8h2v3.3h3.3v2.5h-3.3v3.6c0,0.8,0,1.3,0.1,1.5
		c0.1,0.2,0.3,0.4,0.6,0.6c0.3,0.2,0.6,0.3,1,0.3c0.7,0,1.4-0.2,2.1-0.7v2.2c-0.6,0.3-1.1,0.4-1.6,0.6c-0.5,0.1-1,0.2-1.6,0.2
		c-0.7,0-1-0.1-1.5-0.3c-0.5-0.2-0.9-0.4-1.3-0.7c-0.4-0.3-0.6-0.6-0.7-1c-0.2-0.3-0.2-0.8-0.2-1.5v-4.9h-1.9v-2
		C-220.9,138.5-220.3,138.3-219.8,137.9z"/>
</g>
<g>
	<g>
		<g>
			<path fill="#05171E" d="M-151,134.4h-4.5c-0.6,0-1.2,0.1-1.9,0.2c-0.7,0.2-1.3,0.5-2,1c-0.9,0.9-1.4,1.9-1.4,3
				c0,0.9,0.3,1.7,1,2.4c0.6,0.7,1.5,1.1,2.7,1.1c0.2,0,0.5,0,0.7,0c0,0.1-0.1,0.2-0.1,0.4c-0.1,0.1-0.1,0.3-0.1,0.5
				c0,0.3,0.1,0.6,0.2,0.8c0.1,0.2,0.3,0.5,0.4,0.7c-0.5,0-1.2,0.1-2,0.2c-0.8,0.1-1.6,0.4-2.3,0.8c-0.6,0.4-1.1,0.8-1.3,1.3
				c-0.3,0.5-0.4,1-0.4,1.4c0,0.9,0.4,1.6,1.2,2.2c0.8,0.7,1.9,1,3.5,1c1.9,0,3.3-0.5,4.3-1.3c1-0.8,1.4-1.8,1.4-2.9
				c0-0.8-0.2-1.4-0.5-1.9c-0.4-0.5-0.8-0.9-1.2-1.3l-0.8-0.6c-0.1-0.1-0.2-0.2-0.3-0.4c-0.1-0.2-0.2-0.3-0.2-0.6
				c0-0.2,0.1-0.5,0.2-0.6c0.1-0.2,0.2-0.3,0.4-0.5c0.2-0.2,0.5-0.4,0.7-0.6c0.2-0.2,0.4-0.4,0.5-0.6c0.3-0.5,0.5-1.1,0.5-1.9
				c0-0.4,0-0.8-0.1-1.2c-0.1-0.3-0.3-0.6-0.4-0.9c-0.2-0.3-0.3-0.5-0.5-0.6c-0.2-0.2-0.3-0.3-0.5-0.4h1.4L-151,134.4z
				 M-153.4,146.7c0.4,0.4,0.6,0.9,0.6,1.5c0,0.7-0.3,1.3-0.8,1.7c-0.6,0.5-1.4,0.7-2.4,0.7c-1.2,0-2.1-0.3-2.8-0.8
				c-0.7-0.5-1.1-1.2-1.1-2c0-0.4,0.1-0.7,0.2-1c0.1-0.3,0.3-0.5,0.5-0.7c0.2-0.2,0.4-0.3,0.6-0.4c0.2-0.1,0.4-0.2,0.5-0.2
				c0.5-0.1,1-0.3,1.4-0.3c0.5,0,0.8-0.1,0.9,0c0.2,0,0.4,0,0.5,0C-154.4,145.8-153.8,146.3-153.4,146.7z M-154.2,140.1
				c-0.1,0.3-0.2,0.6-0.4,0.9c-0.4,0.4-0.9,0.6-1.5,0.6c-0.5,0-0.9-0.1-1.2-0.4c-0.4-0.3-0.7-0.6-0.9-1c-0.5-0.9-0.7-1.7-0.7-2.5
				c0-0.6,0.1-1.2,0.5-1.7c0.4-0.5,0.9-0.7,1.5-0.7c0.5,0,0.9,0.2,1.2,0.4c0.3,0.3,0.6,0.6,0.8,1.1c0.5,0.9,0.7,1.8,0.7,2.7
				C-154.1,139.5-154.1,139.8-154.2,140.1z M-146.5,141.5v-2.4h-1.2v2.4h-2.4v1.2h2.4v2.4h1.2v-2.4h2.4v-1.2H-146.5z"/>
		</g>
	</g>
</g>
<path fill="#05171E" d="M-125.8,135.5h9.6c0.9,0,1.7,0.7,1.7,1.7v9.6c0,0.9-0.7,1.7-1.7,1.7h-9.6c-0.9,0-1.7-0.7-1.7-1.7v-9.6
	C-127.5,136.3-126.7,135.5-125.8,135.5z M-118,137c-0.3,0-0.6,0.3-0.6,0.6v1.4c0,0.3,0.3,0.6,0.6,0.6h1.5c0.3,0,0.6-0.3,0.6-0.6
	v-1.4c0-0.3-0.3-0.6-0.6-0.6H-118z M-116,141h-1.1c0.1,0.4,0.2,0.7,0.2,1.1c0,2.2-1.8,3.9-4,3.9c-2.2,0-4-1.7-4-3.9
	c0-0.4,0.1-0.8,0.2-1.1h-1.2v5.5c0,0.3,0.2,0.5,0.5,0.5h9c0.3,0,0.5-0.2,0.5-0.5V141z M-121,139.5c-1.4,0-2.6,1.1-2.6,2.5
	c0,1.4,1.2,2.5,2.6,2.5c1.4,0,2.6-1.1,2.6-2.5C-118.4,140.6-119.6,139.5-121,139.5z"/>
<path fill="#FFFFFF" d="M-337,169c-0.6,0.3-1.2,0.4-1.9,0.5c0.7-0.4,1.2-1,1.4-1.8c-0.6,0.4-1.3,0.6-2.1,0.8c-0.6-0.6-1.5-1-2.4-1
	c-1.8,0-3.3,1.5-3.3,3.3c0,0.3,0,0.5,0.1,0.7c-2.7-0.1-5.1-1.4-6.8-3.4c-0.3,0.5-0.4,1-0.4,1.7c0,1.1,0.6,2.1,1.5,2.7
	c-0.5,0-1-0.2-1.5-0.4l0,0c0,1.6,1.1,2.9,2.6,3.2c-0.4,0.3-1,0.3-1.5,0c0.4,1.3,1.6,2.3,3.1,2.3c-1.1,0.9-2.5,1.4-4.1,1.4
	c-0.3,0-0.5,0-0.8,0c1.5,0.9,3.2,1.5,5,1.5c6,0,9.3-5,9.3-9.3c0-0.1,0-0.3,0-0.4C-338,170.3-337.4,169.7-337,169z"/>
<path fill="#FFFFFF" d="M-283.1,174v8h3v-8h2l1-3h-3c0,0,0-0.5,0-1.3c0-0.3,0.2-0.7,0.7-0.7c1,0,2.9,0,2.3,0v-3c0,0-1.6,0-3.3,0
	c-1.7,0-2.7,1.3-2.7,2.8s0,2.3,0,2.3h-2v3h2V174z"/>
<path fill="#FFFFFF" d="M-249,182c-4.4,0-8-3.6-8-8s3.6-8,8-8s8,3.6,8,8S-244.6,182-249,182z M-242.3,175.1
	c-0.2-0.1-2.1-0.6-4.3-0.3c0.9,2.5,1.1,3.7,1.3,4.9C-243.6,178.6-242.6,177-242.3,175.1z M-246.3,180.3c-0.2-1.2-0.5-2.7-1.5-5.2
	l0,0c-3.9,1.3-5.2,4-5.4,4.3C-251.6,180.7-249,181.2-246.3,180.3z M-254.1,178.6c1.6-3.1,5.8-4.6,5.9-4.6c-0.2-0.4-0.4-0.8-0.6-1.2
	c-3.4,1-6.7,1-7,1C-255.9,175.7-255.2,177.4-254.1,178.6z M-255.7,172.6c0.3,0,3.1,0,6.3-0.8c-1.1-2-2.3-3.7-2.5-4
	C-253.8,168.7-255.2,170.5-255.7,172.6z M-250.6,167.4c0.2,0.3,1.4,1.9,2.5,4c2.4-0.9,3.5-2.3,3.6-2.5
	C-245.7,167.8-248,166.9-250.6,167.4z M-243.7,169.7c-0.1,0.2-1.3,1.7-3.8,2.7c0.2,0.3,0.4,0.9,0.6,1.4c2.3-0.3,4,0,4.8,0.2
	C-242.1,172.2-242.8,170.8-243.7,169.7z"/>
<path fill="#FFFFFF" d="M-310.2,175.1c-0.6,0-1.1,0.7-1.1,1.6c0,0.9,0.5,1.6,1.1,1.6c0.6,0,1.1-0.7,1.1-1.6
	C-309.1,175.8-309.6,175.1-310.2,175.1z M-306.3,171.1c0.1-0.3,0.1-2.1-0.6-3.8c0,0-1.6,0.2-4,1.8c-0.5-0.1-1.3-0.2-2.2-0.2
	s-1.7,0.1-2.2,0.2c-2.4-1.6-4-1.8-4-1.8c-0.7,1.7-0.7,3.5-0.6,3.8c-0.6,0.8-1.1,1.9-1.1,3.3c0,6.2,5.2,6.3,6.5,6.3
	c0.3,0,0.9,0,1.5,0s1.2,0,1.5,0c1.3,0,6.5-0.1,6.5-6.3C-305,173-305.5,171.9-306.3,171.1z M-313,180L-313,180
	c-3.3,0-5.9-0.4-5.9-3.6c0-0.8,0.3-1.5,0.9-2.1c1.1-1,2.9-0.5,4.9-0.5l0,0l0,0c2.1,0,3.9-0.5,4.9,0.5c0.6,0.6,0.9,1.3,0.9,2.1
	C-307.1,179.6-309.7,180-313,180z M-315.8,175.1c-0.6,0-1.1,0.7-1.1,1.6c0,0.9,0.5,1.6,1.1,1.6c0.6,0,1.1-0.7,1.1-1.6
	C-314.6,175.8-315.1,175.1-315.8,175.1z"/>
<rect x="-361" y="158" fill="none" width="32" height="32"/>
<rect x="-329" y="158" fill="none" width="32" height="32"/>
<rect x="-297" y="158" fill="none" width="32" height="32"/>
<rect x="-265" y="158" fill="none" width="32" height="32"/>
<rect x="-233" y="158" fill="none" width="32" height="32"/>
<rect x="-201" y="158" fill="none" width="32" height="32"/>
<rect x="-169" y="158" fill="none" width="32" height="32"/>
<rect x="-137" y="158" fill="none" width="32" height="32"/>
<g>
	<path fill="#FFFFFF" d="M-187.9,168.8c0,0.9-0.8,1.7-1.7,1.7c-0.9,0-1.7-0.8-1.7-1.7s0.7-1.7,1.7-1.7
		C-188.6,167.1-187.9,167.9-187.9,168.8z M-190.9,180.9v-9.4h2.7v9.4H-190.9z M-184.1,171.5v0.4c1-0.5,2.5-0.4,3.5,0.1
		c1.1,0.6,1.8,1.9,1.8,3.1v5.8h-2.7v-5.8c0-0.3-0.2-0.7-0.5-0.8c-1.1-0.6-2.2,0.5-2.2,0.5v6.1h-2.7v-9.4H-184.1z"/>
</g>
<g>
	<path fill="#FFFFFF" d="M-219.8,169.9c0.4-0.3,0.7-0.7,1-1.2c0.3-0.4,0.4-1,0.5-1.8h2v3.3h3.3v2.5h-3.3v3.6c0,0.8,0,1.3,0.1,1.5
		c0.1,0.2,0.3,0.4,0.6,0.6c0.3,0.2,0.6,0.3,1,0.3c0.7,0,1.4-0.2,2.1-0.7v2.2c-0.6,0.3-1.1,0.4-1.6,0.6c-0.5,0.1-1,0.2-1.6,0.2
		c-0.7,0-1-0.1-1.5-0.3c-0.5-0.2-0.9-0.4-1.3-0.7c-0.4-0.3-0.6-0.6-0.7-1c-0.2-0.3-0.2-0.8-0.2-1.5v-4.9h-1.9v-2
		C-220.9,170.5-220.3,170.3-219.8,169.9z"/>
</g>
<g>
	<g>
		<g>
			<path fill="#FFFFFF" d="M-151,166.4h-4.5c-0.6,0-1.2,0.1-1.9,0.2c-0.7,0.2-1.3,0.5-2,1c-0.9,0.9-1.4,1.9-1.4,3
				c0,0.9,0.3,1.7,1,2.4c0.6,0.7,1.5,1.1,2.7,1.1c0.2,0,0.5,0,0.7,0c0,0.1-0.1,0.2-0.1,0.4c-0.1,0.1-0.1,0.3-0.1,0.5
				c0,0.3,0.1,0.6,0.2,0.8c0.1,0.2,0.3,0.5,0.4,0.7c-0.5,0-1.2,0.1-2,0.2c-0.8,0.1-1.6,0.4-2.3,0.8c-0.6,0.4-1.1,0.8-1.3,1.3
				c-0.3,0.5-0.4,1-0.4,1.4c0,0.9,0.4,1.6,1.2,2.2c0.8,0.7,1.9,1,3.5,1c1.9,0,3.3-0.5,4.3-1.3c1-0.8,1.4-1.8,1.4-2.9
				c0-0.8-0.2-1.4-0.5-1.9c-0.4-0.5-0.8-0.9-1.2-1.3l-0.8-0.6c-0.1-0.1-0.2-0.2-0.3-0.4c-0.1-0.2-0.2-0.3-0.2-0.6
				c0-0.2,0.1-0.5,0.2-0.6c0.1-0.2,0.2-0.3,0.4-0.5c0.2-0.2,0.5-0.4,0.7-0.6c0.2-0.2,0.4-0.4,0.5-0.6c0.3-0.5,0.5-1.1,0.5-1.9
				c0-0.4,0-0.8-0.1-1.2c-0.1-0.3-0.3-0.6-0.4-0.9c-0.2-0.3-0.3-0.5-0.5-0.6c-0.2-0.2-0.3-0.3-0.5-0.4h1.4L-151,166.4z
				 M-153.4,178.7c0.4,0.4,0.6,0.9,0.6,1.5c0,0.7-0.3,1.3-0.8,1.7c-0.6,0.5-1.4,0.7-2.4,0.7c-1.2,0-2.1-0.3-2.8-0.8
				c-0.7-0.5-1.1-1.2-1.1-2c0-0.4,0.1-0.7,0.2-1c0.1-0.3,0.3-0.5,0.5-0.7c0.2-0.2,0.4-0.3,0.6-0.4c0.2-0.1,0.4-0.2,0.5-0.2
				c0.5-0.1,1-0.3,1.4-0.3c0.5,0,0.8-0.1,0.9,0c0.2,0,0.4,0,0.5,0C-154.4,177.8-153.8,178.3-153.4,178.7z M-154.2,172.1
				c-0.1,0.3-0.2,0.6-0.4,0.9c-0.4,0.4-0.9,0.6-1.5,0.6c-0.5,0-0.9-0.1-1.2-0.4c-0.4-0.3-0.7-0.6-0.9-1c-0.5-0.9-0.7-1.7-0.7-2.5
				c0-0.6,0.1-1.2,0.5-1.7c0.4-0.5,0.9-0.7,1.5-0.7c0.5,0,0.9,0.2,1.2,0.4c0.3,0.3,0.6,0.6,0.8,1.1c0.5,0.9,0.7,1.8,0.7,2.7
				C-154.1,171.5-154.1,171.8-154.2,172.1z M-146.5,173.5v-2.4h-1.2v2.4h-2.4v1.2h2.4v2.4h1.2v-2.4h2.4v-1.2H-146.5z"/>
		</g>
	</g>
</g>
<path fill="#FFFFFF" d="M-125.8,167.5h9.6c0.9,0,1.7,0.7,1.7,1.7v9.6c0,0.9-0.7,1.7-1.7,1.7h-9.6c-0.9,0-1.7-0.7-1.7-1.7v-9.6
	C-127.5,168.3-126.7,167.5-125.8,167.5z M-118,169c-0.3,0-0.6,0.3-0.6,0.6v1.4c0,0.3,0.3,0.6,0.6,0.6h1.5c0.3,0,0.6-0.3,0.6-0.6
	v-1.4c0-0.3-0.3-0.6-0.6-0.6H-118z M-116,173h-1.1c0.1,0.4,0.2,0.7,0.2,1.1c0,2.2-1.8,3.9-4,3.9c-2.2,0-4-1.7-4-3.9
	c0-0.4,0.1-0.8,0.2-1.1h-1.2v5.5c0,0.3,0.2,0.5,0.5,0.5h9c0.3,0,0.5-0.2,0.5-0.5V173z M-121,171.5c-1.4,0-2.6,1.1-2.6,2.5
	c0,1.4,1.2,2.5,2.6,2.5c1.4,0,2.6-1.1,2.6-2.5C-118.4,172.6-119.6,171.5-121,171.5z"/>
</svg>
