<?xml version="1.0" encoding="utf-8"?>
<!-- Generator: Adobe Illustrator 18.1.0, SVG Export Plug-In . SVG Version: 6.00 Build 0)  -->
<svg version="1.1" id="Layer_1" xmlns="http://www.w3.org/2000/svg" xmlns:xlink="http://www.w3.org/1999/xlink" x="0px" y="0px"
	 viewBox="-58 -35 264 88" enable-background="new -58 -35 264 88" xml:space="preserve">
<title>default-skin 2</title>
<g>
	<g>
		<path id="Shape" fill="#FFFFFF" d="M9,24.5v3.8C2.7,29.1-0.2,34-1,38c2.2-2.8,5.6-5.1,10-5.1v3.6l6-5.9L9,24.5z"/>
		<g>
			<path id="Shape_1_" fill="#FFFFFF" d="M-45-6v-5h2v3h3v2H-45z M-45-20h5v2h-3v3h-2V-20z M-27-20v5h-2v-3h-3v-2H-27z M-27-6h-5v-2
				h3v-3h2V-6z"/>
		</g>
		<g>
			<path fill="#FFFFFF" d="M4-11v5H2v-3h-3v-2H4z M4-15h-5v-2h3v-3h2V-15z M12-15v-5h2v3h3v2H12z M12-11h5v2h-3v3h-2V-11z"/>
		</g>
		<path fill="#FFFFFF" d="M-37.4,31l-5.7-5.7l1.4-1.4l5.7,5.7l5.7-5.7l1.4,1.4l-5.7,5.7l5.7,5.7l-1.4,1.4l-5.7-5.7l-5.7,5.7
			l-1.4-1.4L-37.4,31z"/>
		<g>
			<path id="Rectangle-11" fill="#FFFFFF" d="M103-6.5l-3.2-3.2l-1.4,1.4l3.2,3.2L103-6.5z"/>
			<path id="Oval-1" fill="none" stroke="#FFFFFF" stroke-width="1.5" d="M94.5-8c3,0,5.5-2.5,5.5-5.5S97.5-19,94.5-19
				S89-16.5,89-13.5S91.5-8,94.5-8z"/>
			<path fill="#FFFFFF" d="M92-14h5v1h-5V-14z"/>
		</g>
		<g>
			<path fill="#FFFFFF" d="M59-6.5L57.5-5l-3.2-3.2l1.4-1.4L59-6.5z"/>
			<path fill="none" stroke="#FFFFFF" stroke-width="1.5" d="M50.5-8c3,0,5.5-2.5,5.5-5.5S53.5-19,50.5-19S45-16.5,45-13.5
				S47.5-8,50.5-8z"/>
			<path fill="#FFFFFF" d="M48-14h5v1h-5V-14z"/>
			<path fill="#FFFFFF" d="M51-16L51-11l-1,0l0.1-5L51-16z"/>
		</g>
	</g>
</g>
<polygon fill="#FFFFFF" points="56.2,24 49.9,30.2 48.9,29.2 54.1,24 48.9,18.8 49.9,17.8 "/>
<polygon fill="#FFFFFF" points="98.1,17.8 99.1,18.8 93.9,24 99.1,29.2 98.1,30.2 91.9,24 "/>
</svg>
