<?xml version="1.0" encoding="utf-8"?>
<!-- Generator: Adobe Illustrator 18.1.0, SVG Export Plug-In . SVG Version: 6.00 Build 0)  -->
<svg version="1.1" id="Layer_1" xmlns="http://www.w3.org/2000/svg" xmlns:xlink="http://www.w3.org/1999/xlink" x="0px" y="0px"
	 viewBox="0 0 381.3 17.8" enable-background="new 0 0 381.3 17.8" xml:space="preserve">
<g>
	<path fill="#05171E" d="M9.6,5.9C9.5,5.2,9.4,4.9,9.3,4.6C8.6,3.2,7.4,3.1,6.8,3.1c-1.2,0-1.8,0.7-2.1,1c-1.1,1.5-1,3.8-1,4.2
		c0,0.2,0,2.1,0.4,3.3c0.1,0.5,0.4,0.9,0.7,1.3c0.1,0.2,0.5,0.6,1.2,0.8c0.5,0.2,1,0.2,1.2,0.2c0.7,0,1.3-0.2,1.8-0.7
		C9,13,9.3,12.7,9.4,12.2c0.1-0.4,0.1-0.7,0.1-1.4H6.8V8.5h5.3V16h-2l-0.3-1.2c-0.4,0.4-0.6,0.5-0.8,0.7c-0.7,0.4-1.7,0.6-2.6,0.6
		c-0.5,0-1.7-0.1-2.9-0.9c-2.8-2-2.8-6-2.8-6.7c0-2.8,1-4.6,1.7-5.5c1.1-1.3,2.9-2,4.6-2c1.9,0,3.8,0.9,4.7,2.7
		c0.3,0.5,0.4,0.9,0.5,1.8L9.6,5.9z"/>
	<path fill="#05171E" d="M23.9,1.2v2.4h-6.2v3.7h5.1v2.4h-5.2v3.8h6.6v2.4h-9.5V1.2H23.9z"/>
	<path fill="#05171E" d="M32.2,1.2c1.2,0.1,1.7,0.1,2.2,0.4C35.9,2.1,37,3.8,37,5.5c0,0.5-0.1,2-1.4,3c-0.3,0.2-0.5,0.4-1.1,0.7
		l2.9,6.7h-2.9l-2.7-6.2h-2.4v6.2h-2.8V1.2H32.2z M29.4,7.4c0.6,0,1.2,0,1.9,0h0.6c0.3,0,1.3,0,1.9-0.7c0.1-0.2,0.4-0.6,0.4-1.2
		c0-0.4-0.1-0.6-0.1-0.8c-0.4-1-1.6-1.1-2.5-1.1h-2.1L29.4,7.4z"/>
	<path fill="#05171E" d="M45.3,1.2c1.2,0.1,1.7,0.1,2.2,0.4c1.5,0.6,2.6,2.2,2.6,3.9c0,0.5-0.1,2-1.4,3c-0.3,0.2-0.5,0.4-1.1,0.7
		l2.9,6.7h-2.9l-2.7-6.2h-2.4v6.2h-2.8V1.2H45.3z M42.5,7.4c0.6,0,1.2,0,1.9,0H45c0.3,0,1.3,0,1.9-0.7c0.1-0.2,0.4-0.6,0.4-1.2
		c0-0.4-0.1-0.6-0.1-0.8c-0.4-1-1.6-1.1-2.5-1.1h-2.1L42.5,7.4z"/>
	<path fill="#05171E" d="M55.8,1.2v14.7h-2.9V1.2H55.8z"/>
	<path fill="#05171E" d="M68,1.2v2.4h-3.9v12.3h-2.9V3.6h-3.8V1.2H68z"/>
	<path fill="#05171E" d="M81.7,5.4c-0.1-0.4-0.2-0.7-0.4-1c-0.3-0.6-1-1-1.7-1c-0.5,0-0.9,0.2-1.1,0.3c-0.2,0.1-0.7,0.6-0.7,1.4
		c0,0.2,0,0.6,0.3,0.9c0.5,0.6,1.3,0.8,2,1c2.7,0.7,3.8,1.7,4.3,3.1c0.1,0.2,0.2,0.8,0.2,1.5c0,0.4,0,1.4-0.6,2.3
		c-0.6,1-1.9,2.2-4.5,2.2c-2.2,0-3.3-1-3.9-1.7c-0.2-0.2-0.7-0.8-0.9-1.5c-0.1-0.2-0.1-0.5-0.2-1l2.9-0.4c0.3,1,0.4,1.3,0.8,1.6
		c0.3,0.2,0.7,0.5,1.5,0.5c1.7,0,2.2-1.2,2.2-1.9c0-0.4-0.1-0.7-0.2-0.9c-0.3-0.5-0.8-0.8-2-1.2c-0.9-0.3-1.6-0.4-2.4-0.8
		c-2.1-1-2.4-2.6-2.4-3.5c0-0.3,0.1-1.1,0.5-2C76,2.5,77.2,1,79.9,1c0.2,0,0.9,0,1.5,0.2c1.5,0.5,2.2,1.7,2.5,2.1
		c0.3,0.5,0.4,1,0.5,1.6L81.7,5.4z"/>
	<path fill="#05171E" d="M95.2,6.1c0-0.2-0.1-0.4-0.1-0.6c-0.2-1.2-0.8-1.7-1.2-2c-0.5-0.3-1-0.3-1.3-0.3c-2,0-2.6,2-2.7,2.5
		c-0.1,0.4-0.2,1-0.3,2.1c0,0.4,0,0.8,0,1.3c0,0.3,0,0.9,0.1,1.6c0.3,1.5,1.2,3.2,2.9,3.2c0.4,0,1.2-0.1,1.8-0.9
		c0.5-0.6,0.7-1.4,0.9-2.2l2.7,0.4c-0.1,0.2-0.1,0.4-0.2,0.7c-0.4,1.4-1,2.1-1.4,2.6c-0.6,0.6-1.9,1.5-4,1.5c-0.7,0-2.8-0.1-4.2-1.8
		c-0.8-0.9-1.8-2.8-1.8-5.7c0-3.6,1.4-5.5,2.6-6.4c1-0.8,2.3-1.2,3.6-1.2c0.9,0,3.4,0.3,4.8,2.8c0.3,0.5,0.4,0.9,0.7,2L95.2,6.1z"/>
	<path fill="#05171E" d="M102.5,1.2v5.8h5V1.2h2.9v14.7h-2.9V9.3h-5v6.6h-2.9V1.2H102.5z"/>
	<path fill="#05171E" d="M119.3,1.2c1.2,0.1,1.7,0.1,2.2,0.4c1.5,0.6,2.6,2.2,2.6,3.9c0,0.5-0.1,2-1.4,3c-0.3,0.2-0.5,0.4-1.1,0.7
		l2.9,6.7h-2.9l-2.7-6.2h-2.4v6.2h-2.8V1.2H119.3z M116.5,7.4c0.6,0,1.2,0,1.9,0h0.6c0.3,0,1.3,0,1.9-0.7c0.1-0.2,0.4-0.6,0.4-1.2
		c0-0.4-0.1-0.6-0.1-0.8c-0.4-1-1.6-1.1-2.5-1.1h-2.1L116.5,7.4z"/>
	<path fill="#05171E" d="M135.9,1.2v2.4h-6.2v3.7h5.1v2.4h-5.2v3.8h6.6v2.4h-9.5V1.2H135.9z"/>
	<path fill="#05171E" d="M141.5,1.2v9.9c0,0.4-0.1,1.7,1,2.3c0.2,0.1,0.6,0.3,1.2,0.3c0.2,0,0.9,0,1.4-0.5c0.8-0.6,0.9-1.5,0.9-2.5
		V1.2h2.9v9.7c-0.1,1.6-0.3,3-1.5,4.1c-1.1,0.9-2.5,1.1-3.9,1.1c-0.2,0-0.9,0-1.5-0.1c-0.7-0.1-2.5-0.7-3.1-2.7
		c-0.2-0.5-0.2-0.9-0.3-2V1.2H141.5z"/>
	<path fill="#05171E" d="M157.8,1.2c1.2,0.1,1.7,0.1,2.2,0.4c1.5,0.6,2.6,2.2,2.6,3.9c0,0.5-0.1,2-1.4,3c-0.3,0.2-0.5,0.4-1.1,0.7
		l2.9,6.7H160l-2.7-6.2H155v6.2h-2.8V1.2H157.8z M155,7.4c0.6,0,1.2,0,1.9,0h0.6c0.3,0,1.3,0,1.9-0.7c0.1-0.2,0.4-0.6,0.4-1.2
		c0-0.4-0.1-0.6-0.1-0.8c-0.4-1-1.6-1.1-2.5-1.1H155L155,7.4z"/>
	<path fill="#05171E" d="M171.4,5.4c-0.1-0.4-0.2-0.7-0.4-1c-0.3-0.6-1-1-1.7-1c-0.5,0-0.9,0.2-1.1,0.3c-0.2,0.1-0.7,0.6-0.7,1.4
		c0,0.2,0,0.6,0.3,0.9c0.5,0.6,1.3,0.8,2,1c2.7,0.7,3.8,1.7,4.3,3.1c0.1,0.2,0.2,0.8,0.2,1.5c0,0.4,0,1.4-0.6,2.3
		c-0.6,1-1.9,2.2-4.5,2.2c-2.2,0-3.3-1-3.9-1.7c-0.2-0.2-0.7-0.8-0.9-1.5c-0.1-0.2-0.1-0.5-0.2-1l2.9-0.4c0.3,1,0.4,1.3,0.8,1.6
		c0.3,0.2,0.7,0.5,1.5,0.5c1.7,0,2.2-1.2,2.2-1.9c0-0.4-0.1-0.7-0.2-0.9c-0.3-0.5-0.8-0.8-2-1.2c-0.9-0.3-1.6-0.4-2.4-0.8
		c-2.1-1-2.4-2.6-2.4-3.5c0-0.3,0.1-1.1,0.5-2c0.5-1,1.8-2.5,4.5-2.5c0.2,0,0.9,0,1.5,0.2c1.5,0.5,2.2,1.7,2.5,2.1
		c0.3,0.5,0.4,1,0.5,1.6L171.4,5.4z"/>
</g>
<g>
	<path fill="#05171E" d="M194.4,15.9h-1.5L196,1.1h3c1.5,0,2.2,0.1,2.9,0.4c0.7,0.3,2,1,2,2.9c0,1.8-1,3.5-2.7,4.2
		c-1.6,0.7-3.8,0.7-5.5,0.6L194.4,15.9z M197.3,8c0.7,0,1.4,0,2.1-0.1c0.4-0.1,1.6-0.2,2.4-1.2c0.7-0.8,0.8-1.7,0.8-2.1
		c0-1.2-0.7-1.7-1.2-1.9c-0.7-0.3-1.4-0.3-2.9-0.4h-1.2L196.1,8H197.3z"/>
	<path fill="#05171E" d="M211.3,15.9l1.6-7.4h-6.5l-1.5,7.4h-1.5l3.1-14.8h1.5l-1.3,6.2h6.4l1.3-6.2h1.5l-3.1,14.8H211.3z"/>
	<path fill="#05171E" d="M220.5,16.1c-2.8-0.6-3.4-3.3-3.4-5.7c0-0.9,0.1-3.7,1.5-6.1c0.2-0.4,0.8-1.3,1.7-2.1
		c1.2-0.9,2.5-1.4,3.9-1.4c1.3,0,2.6,0.5,3.4,1.5c0.7,0.8,1.2,2.1,1.2,4.3c0,0.5,0,1.2-0.2,2.3c-0.1,0.8-0.8,4.1-3.2,6
		c-1.3,1-2.6,1.3-3.3,1.3C222,16.2,221.3,16.3,220.5,16.1z M224.7,13.9c0.3-0.3,0.8-0.8,1.3-1.6c0.9-1.6,1.4-3.8,1.4-5.6
		c0-2.5-0.7-3.7-1.8-4.3c-0.7-0.4-1.3-0.4-1.6-0.4c-1,0-2.7,0.4-3.9,2.5c-1,1.6-1.4,4-1.4,5.9c0,0.2,0,2.2,0.8,3.4
		c0.1,0.2,0.5,0.6,1.2,0.9c0.7,0.3,1.4,0.3,1.7,0.3C222.7,14.9,223.7,14.7,224.7,13.9z"/>
	<path fill="#05171E" d="M230.5,15.9l2.9-13.6h-4l0.2-1.2h9.4l-0.2,1.2h-3.9L232,15.9H230.5z"/>
	<path fill="#05171E" d="M241.5,16.1c-2.8-0.6-3.4-3.3-3.4-5.7c0-0.9,0.1-3.7,1.5-6.1c0.2-0.4,0.8-1.3,1.7-2.1
		c1.2-0.9,2.5-1.4,3.9-1.4c1.3,0,2.6,0.5,3.4,1.5c0.7,0.8,1.2,2.1,1.2,4.3c0,0.5,0,1.2-0.2,2.3c-0.1,0.8-0.8,4.1-3.2,6
		c-1.3,1-2.6,1.3-3.3,1.3C243,16.2,242.3,16.3,241.5,16.1z M245.7,13.9c0.3-0.3,0.8-0.8,1.3-1.6c0.9-1.6,1.4-3.8,1.4-5.6
		c0-2.5-0.7-3.7-1.8-4.3c-0.7-0.4-1.3-0.4-1.6-0.4c-1,0-2.7,0.4-3.9,2.5c-1,1.6-1.4,4-1.4,5.9c0,0.2,0,2.2,0.8,3.4
		c0.1,0.2,0.5,0.6,1.2,0.9c0.7,0.3,1.4,0.3,1.7,0.3C243.7,14.9,244.7,14.7,245.7,13.9z"/>
	<path fill="#05171E" d="M259.2,15.9l0.4-1.7c-0.5,0.6-1.7,1.9-3.9,1.9c-0.5,0-1.6,0-2.6-0.9c-0.8-0.7-1.5-1.8-1.5-4.1
		c0-0.5,0-1.3,0.2-2.4c0.1-0.8,0.9-4.5,3.3-6.6c1-0.9,2.3-1.4,3.7-1.4c0.7,0,2.7,0.1,3.5,2.1c0.2,0.5,0.3,0.8,0.4,1.7L261.3,5
		c0-0.1,0-0.5-0.1-0.8c-0.3-1.3-1.1-2.1-2.5-2.1c-1.7,0-3,1.2-3.9,2.6c-1.1,1.8-1.8,4.4-1.8,6.5c0,0.2,0,1.2,0.3,2
		c0.2,0.6,0.8,1.8,2.6,1.8c1.7,0,3.1-1.3,3.8-2.8c0.4-0.8,0.5-1.7,0.5-2h-3l0.3-1.3h4.5l-1.5,7.2H259.2z"/>
	<path fill="#05171E" d="M265.7,15.9h-1.4l3.1-14.8h3.1c0.6,0,1.3,0,1.9,0.1c0.4,0.1,1.8,0.3,2.5,1.5c0.1,0.3,0.4,0.8,0.4,1.7
		c0,0.8-0.3,2.6-2.1,3.8c-0.8,0.5-1.4,0.7-1.7,0.8l2.4,7h-1.6l-2.3-6.8c-0.6,0-1.2,0.1-1.8,0c-0.4,0-0.8,0-1.2,0L265.7,15.9z
		 M268.7,8c1.6,0,3.3,0,4.4-1.3c0.2-0.3,0.8-1,0.8-2.1c0-0.5-0.1-0.9-0.4-1.3c-0.1-0.1-0.3-0.3-0.7-0.5c-0.7-0.3-1.4-0.4-2.9-0.4
		l-1.3,0l-1.2,5.6L268.7,8z"/>
	<path fill="#05171E" d="M283.6,15.9l-0.3-4.9h-4.9l-2.4,4.9h-1.5l7.4-14.8h2.1l1,14.8H283.6z M282.8,2.1l-3.8,7.8h4.2L282.8,2.1z"
		/>
	<path fill="#05171E" d="M288,15.9h-1.5l3.1-14.8h3c1.5,0,2.2,0.1,2.9,0.4c0.7,0.3,2,1,2,2.9c0,1.8-1,3.5-2.7,4.2
		c-1.6,0.7-3.8,0.7-5.5,0.6L288,15.9z M290.9,8c0.7,0,1.4,0,2.1-0.1c0.4-0.1,1.6-0.2,2.4-1.2c0.7-0.8,0.8-1.7,0.8-2.1
		c0-1.2-0.7-1.7-1.2-1.9c-0.7-0.3-1.4-0.3-2.9-0.4h-1.2L289.7,8H290.9z"/>
	<path fill="#05171E" d="M305,15.9l1.6-7.4h-6.5l-1.5,7.4H297l3.1-14.8h1.5l-1.3,6.2h6.4l1.3-6.2h1.5l-3.1,14.8H305z"/>
	<path fill="#05171E" d="M312.2,15.9l1.3-6.2l-2.6-8.7h1.6l2,7.3l5.1-7.3h1.6l-6.2,8.7l-1.3,6.2H312.2z"/>
	<path fill="#05171E" d="M335.9,8.9c-0.2,0.6-0.7,2.1-1.8,3.5c-0.3,0.3-0.6,0.6-0.8,0.9c0.1,0.1,0.1,0.2,0.2,0.3
		c0.6,0.7,1.4,1,1.7,1s0.4,0.1,0.7,0.1l-0.3,1.2c-0.4,0-0.6,0-0.9-0.1c-1.1-0.2-1.8-0.8-2.6-1.6c-0.4,0.4-0.7,0.5-0.9,0.7
		c-0.4,0.3-1.7,1-3.2,1c-0.5,0-1.1-0.1-1.6-0.3c-1.2-0.5-1.8-1.7-1.8-2.9c0-0.7,0.2-2,1.3-3.2c0.8-0.9,1.8-1.6,2.9-2.1
		c-0.1-0.3-0.5-1.4-0.5-2.6c0-0.3,0-0.9,0.3-1.6c0.5-1.4,1.7-2.4,3.3-2.4c0.5,0,0.8,0.1,1,0.2c0.9,0.3,1.4,1.1,1.4,2.1
		c0,0.1,0,0.5-0.1,0.9c-0.3,1-0.9,1.7-1.6,2.3c-0.7,0.6-1.3,1-2.1,1.4c0.9,2.3,1.6,3.7,2.1,4.6c0.1-0.2,0.3-0.3,0.4-0.5
		c1-1.2,1.6-2.9,1.8-3.3L335.9,8.9z M330.9,12.7c-0.4-0.7-1.1-2.1-1.8-4.1c-1.3,0.7-2,1.4-2.4,1.9c-0.2,0.3-0.4,0.7-0.5,1.1
		c0,0.1-0.1,0.6-0.1,1c0,0.4,0.1,0.7,0.1,0.9c0.5,1.3,1.7,1.4,2.2,1.4c1.5,0,2.8-1.1,3-1.4C331.3,13.2,331.1,13,330.9,12.7z
		 M332.5,4.3c0.1-0.1,0.3-0.6,0.3-1.1c0-0.7-0.4-1.3-1.2-1.3c-0.7,0-1.3,0.4-1.6,1c-0.4,0.6-0.4,1.6-0.4,1.7c0,0.4,0.1,1.2,0.2,1.6
		c0,0.2,0.1,0.3,0.1,0.5C331.1,6.1,332,5.5,332.5,4.3z"/>
	<path fill="#05171E" d="M341.7,15.9l3.1-14.8h7.6l-0.2,1.2H346l-1.1,5.1h5.1l-0.3,1.3h-5.1l-1.5,7.2H341.7z"/>
	<path fill="#05171E" d="M350.9,15.9L354,1.1h1.4l-3.2,14.8H350.9z"/>
	<path fill="#05171E" d="M356.1,15.9l3.1-14.8h1.5l-2.9,13.5h6.2l-0.3,1.3H356.1z"/>
	<path fill="#05171E" d="M375.4,15.9l3-14l-6.7,14h-1.3l-0.8-14l-3,14h-1.4l3.1-14.8h2.4l0.6,12.7l6-12.7h2.5l-3.2,14.8H375.4z"/>
</g>
</svg>
