<?xml version="1.0" encoding="utf-8"?>
<!-- Generator: Adobe Illustrator 18.1.0, SVG Export Plug-In . SVG Version: 6.00 Build 0)  -->
<svg version="1.1" id="Layer_1" xmlns="http://www.w3.org/2000/svg" xmlns:xlink="http://www.w3.org/1999/xlink" x="0px" y="0px"
	 viewBox="229.9 288.6 382 18" enable-background="new 229.9 288.6 382 18" xml:space="preserve">
<g>
	<g>
		<g>
			<path fill="#FFFFFF" d="M239.2,295c-0.1-0.7-0.2-1-0.3-1.3c-0.7-1.4-2-1.5-2.6-1.5c-1.2,0-1.9,0.7-2.2,1c-1.1,1.5-1,3.9-1,4.3
				c0,0.2,0,2.2,0.4,3.4c0.1,0.5,0.4,0.9,0.7,1.3c0.1,0.2,0.5,0.6,1.2,0.8c0.5,0.2,1,0.2,1.2,0.2c0.7,0,1.3-0.2,1.9-0.7
				c0-0.2,0.3-0.5,0.4-1c0.1-0.4,0.1-0.7,0.1-1.4h-2.9v-2.4h5.4v7.8h-2.1l-0.3-1.2c-0.4,0.4-0.6,0.5-0.8,0.7
				c-0.7,0.4-1.7,0.6-2.7,0.6c-0.5,0-1.7-0.1-3-0.9c-2.9-2.1-2.9-6.2-2.9-7c0-2.9,1-4.7,1.7-5.7c1.1-1.3,3-2.1,4.7-2.1
				c2,0,3.9,0.9,4.8,2.8c0.3,0.5,0.4,0.9,0.5,1.9L239.2,295z"/>
			<path fill="#FFFFFF" d="M254,290.1v2.5h-6.4v3.8h5.2v2.5h-5.4v3.9h6.9v2.5h-9.9V290h9.6V290.1z"/>
			<path fill="#FFFFFF" d="M262.5,290.1c1.2,0.1,1.7,0.1,2.3,0.4c1.5,0.5,2.7,2.3,2.7,4c0,0.5-0.1,2.1-1.4,3.1
				c-0.3,0.2-0.5,0.4-1.1,0.7l3,7h-3l-2.8-6.4h-2.5v6.4h-2.9v-15.2H262.5z M259.7,296.6c0.6,0,1.2,0,2,0h0.6c0.3,0,1.3,0,2-0.7
				c0.1-0.2,0.4-0.6,0.4-1.2c0-0.4-0.1-0.6-0.1-0.8c-0.4-1-1.6-1.1-2.6-1.1h-2.2L259.7,296.6z"/>
			<path fill="#FFFFFF" d="M276.1,290.1c1.2,0.1,1.7,0.1,2.3,0.4c1.5,0.6,2.7,2.3,2.7,4c0,0.5-0.1,2.1-1.4,3.1
				c-0.3,0.2-0.5,0.4-1.1,0.7l3,7h-3l-2.8-6.4h-2.5v6.4h-2.9v-15.2H276.1z M273.2,296.6c0.6,0,1.2,0,2,0h0.6c0.3,0,1.3,0,2-0.7
				c0.1-0.2,0.4-0.6,0.4-1.2c0-0.4-0.1-0.6-0.1-0.8c-0.4-1-1.6-1.1-2.6-1.1h-2.2L273.2,296.6z"/>
			<path fill="#FFFFFF" d="M287,290.1v15.2h-3v-15.2H287z"/>
			<path fill="#FFFFFF" d="M299.7,290.1v2.5h-4v12.7h-3v-12.7h-3.9v-2.5H299.7z"/>
			<path fill="#FFFFFF" d="M313.8,294.5c-0.1-0.4-0.2-0.7-0.4-1c-0.3-0.6-1-1-1.7-1c-0.5,0-0.9,0.2-1.1,0.3s-0.7,0.6-0.7,1.4
				c0,0.2,0,0.6,0.3,0.9c0.5,0.6,1.3,0.8,2.1,1c2.8,0.7,3.9,1.7,4.4,3.2c0.1,0.2,0.2,0.8,0.2,1.5c0,0.4,0,1.4-0.6,2.4
				c-0.6,1-2,2.3-4.6,2.3c-2.3,0-3.4-1-4-1.7c-0.2-0.2-0.7-0.8-0.9-1.5c-0.1-0.2-0.1-0.5-0.2-1l3-0.4c0.3,1,0.4,1.3,0.8,1.6
				c0.3,0.2,0.7,0.5,1.5,0.5c1.7,0,2.3-1.2,2.3-2c0-0.4-0.1-0.7-0.2-0.9c-0.3-0.5-0.8-0.8-2.1-1.2c-0.9-0.3-1.6-0.4-2.5-0.8
				c-2.2-1-2.5-2.7-2.5-3.6c0-0.3,0.1-1.1,0.5-2.1c0.6-0.8,1.9-2.4,4.6-2.4c0.2,0,0.9,0,1.5,0.2c1.5,0.5,2.3,1.7,2.6,2.2
				c0.3,0.5,0.4,1,0.5,1.6L313.8,294.5z"/>
			<path fill="#FFFFFF" d="M327.8,295.2c0-0.2-0.1-0.4-0.1-0.6c-0.2-1.2-0.8-1.7-1.2-2.1c-0.5-0.3-1-0.3-1.3-0.3
				c-2.1,0-2.7,2.1-2.8,2.6c-0.1,0.4-0.2,1-0.3,2.2c0,0.4,0,0.8,0,1.3c0,0.3,0,0.9,0.1,1.6c0.3,1.5,1.2,3.3,3,3.3
				c0.4,0,1.2-0.1,1.9-0.9c0.5-0.6,0.7-1.4,0.9-2.3l2.8,0.4c-0.1,0.2-0.1,0.4-0.2,0.7c-0.4,1.4-1,2.2-1.4,2.7
				c-0.6,0.6-2,1.5-4.1,1.5c-0.7,0-2.9-0.1-4.3-1.9c-0.8-0.9-1.9-2.9-1.9-5.9c0-3.7,1.4-5.7,2.7-6.6c1-0.8,2.4-1.2,3.7-1.2
				c0.9,0,3.5,0.3,4.9,2.9c0.3,0.5,0.4,0.9,0.7,2.1L327.8,295.2z"/>
			<path fill="#FFFFFF" d="M335.4,290.1v6h5.1v-6h3v15.2h-3v-6.9h-5.1v6.9h-3v-15.2H335.4z"/>
			<path fill="#FFFFFF" d="M352.8,290.1c1.2,0.1,1.7,0.1,2.3,0.4c1.5,0.6,2.7,2.3,2.7,4c0,0.5-0.1,2.1-1.4,3.1
				c-0.3,0.2-0.5,0.4-1.1,0.7l3,7h-3l-2.8-6.4h-2.5v6.4h-2.9v-15.2H352.8z M349.9,296.6c0.6,0,1.2,0,2,0h0.6c0.3,0,1.3,0,2-0.7
				c0.1-0.2,0.4-0.6,0.4-1.2c0-0.4-0.1-0.6-0.1-0.8c-0.4-1-1.6-1.1-2.6-1.1H350L349.9,296.6z"/>
			<path fill="#FFFFFF" d="M370,290.1v2.5h-6.4v3.8h5.2v2.5h-5.3v3.9h6.9v2.5h-9.9V290h9.5V290.1z"/>
			<path fill="#FFFFFF" d="M375.8,290.1v10.3c0,0.4-0.1,1.7,1,2.4c0.2,0.1,0.6,0.3,1.2,0.3c0.2,0,0.9,0,1.4-0.5
				c0.8-0.6,0.9-1.5,0.9-2.6v-9.9h3v10.1c-0.1,1.6-0.3,3.1-1.5,4.2c-1.1,0.9-2.6,1.1-4,1.1c-0.2,0-0.9,0-1.5-0.1
				c-0.7-0.1-2.6-0.7-3.2-2.8c-0.2-0.5-0.2-0.9-0.3-2.1v-10.5L375.8,290.1L375.8,290.1z"/>
			<path fill="#FFFFFF" d="M392.7,290.1c1.2,0.1,1.7,0.1,2.3,0.4c1.5,0.6,2.7,2.3,2.7,4c0,0.5-0.1,2.1-1.4,3.1
				c-0.3,0.2-0.5,0.4-1.1,0.7l3,7H395l-2.8-6.4h-2.4v6.4h-2.9v-15.2H392.7z M389.8,296.6c0.6,0,1.2,0,2,0h0.6c0.3,0,1.3,0,2-0.7
				c0.1-0.2,0.4-0.6,0.4-1.2c0-0.4-0.1-0.6-0.1-0.8c-0.4-1-1.6-1.1-2.6-1.1h-2.3L389.8,296.6L389.8,296.6z"/>
			<path fill="#FFFFFF" d="M406.8,294.5c-0.1-0.4-0.2-0.7-0.4-1c-0.3-0.6-1-1-1.7-1c-0.5,0-0.9,0.2-1.1,0.3s-0.7,0.6-0.7,1.4
				c0,0.2,0,0.6,0.3,0.9c0.5,0.6,1.3,0.8,2.1,1c2.8,0.7,3.9,1.7,4.4,3.2c0.1,0.2,0.2,0.8,0.2,1.5c0,0.4,0,1.4-0.6,2.4
				c-0.6,1-2,2.3-4.6,2.3c-2.3,0-3.4-1-4-1.7c-0.2-0.2-0.7-0.8-0.9-1.5c-0.1-0.2-0.1-0.5-0.2-1l3-0.4c0.3,1,0.4,1.3,0.8,1.6
				c0.3,0.2,0.7,0.5,1.5,0.5c1.7,0,2.3-1.2,2.3-2c0-0.4-0.1-0.7-0.2-0.9c-0.3-0.5-0.8-0.8-2.1-1.2c-0.9-0.3-1.6-0.4-2.5-0.8
				c-2.2-1-2.5-2.7-2.5-3.6c0-0.3,0.1-1.1,0.5-2.1c0.5-1,1.9-2.6,4.6-2.6c0.2,0,0.9,0,1.5,0.2c1.5,0.5,2.3,1.7,2.6,2.2
				c0.3,0.5,0.4,1,0.5,1.6L406.8,294.5z"/>
		</g>
	</g>
	<g>
		<path fill="#FFFFFF" d="M429.1,305.3l3.3-15.3h7.9l-0.2,1.3h-6.4l-1.2,5.3h5.3l-0.3,1.3h-5.3l-1.6,7.4H429.1z"/>
		<path fill="#FFFFFF" d="M443.2,305.5c-2.9-0.7-3.6-3.4-3.6-5.9c0-0.9,0.1-3.8,1.6-6.3c0.2-0.4,0.8-1.3,1.8-2.2
			c1.2-1,2.5-1.5,4.1-1.5c1.3,0,2.7,0.5,3.5,1.5c0.7,0.8,1.3,2.2,1.3,4.5c0,0.5,0,1.3-0.2,2.4c-0.2,0.8-0.8,4.2-3.3,6.2
			c-1.3,1.1-2.7,1.3-3.4,1.4C444.7,305.6,444,305.7,443.2,305.5z M447.5,303.2c0.3-0.3,0.8-0.8,1.3-1.7c0.9-1.7,1.4-3.9,1.4-5.8
			c0-2.6-0.8-3.8-1.9-4.5c-0.7-0.4-1.3-0.4-1.7-0.4c-1,0-2.8,0.5-4.1,2.6c-1,1.7-1.5,4.2-1.5,6.1c0,0.2,0,2.3,0.8,3.6
			c0.2,0.2,0.5,0.7,1.2,0.9c0.8,0.3,1.5,0.3,1.7,0.3C445.4,304.3,446.5,304.1,447.5,303.2z"/>
		<path fill="#FFFFFF" d="M453.6,305.3l3-14.1h-4.2l0.2-1.3h9.7l-0.2,1.3h-4.1l-3,14.1H453.6z"/>
		<path fill="#FFFFFF" d="M464.9,305.5c-2.9-0.7-3.6-3.4-3.6-5.9c0-0.9,0.1-3.8,1.6-6.3c0.2-0.4,0.8-1.3,1.8-2.2
			c1.2-1,2.5-1.5,4.1-1.5c1.3,0,2.7,0.5,3.5,1.5c0.7,0.8,1.3,2.2,1.3,4.5c0,0.5,0,1.3-0.2,2.4c-0.2,0.8-0.8,4.2-3.3,6.2
			c-1.3,1.1-2.7,1.3-3.4,1.4C466.4,305.6,465.7,305.7,464.9,305.5z M469.3,303.2c0.3-0.3,0.8-0.8,1.3-1.7c0.9-1.7,1.4-3.9,1.4-5.8
			c0-2.6-0.8-3.8-1.9-4.5c-0.7-0.4-1.3-0.4-1.7-0.4c-1,0-2.8,0.5-4.1,2.6c-1,1.7-1.5,4.2-1.5,6.1c0,0.2,0,2.3,0.8,3.6
			c0.2,0.2,0.5,0.7,1.2,0.9c0.8,0.3,1.5,0.3,1.7,0.3C467.2,304.3,468.3,304.1,469.3,303.2z"/>
		<path fill="#FFFFFF" d="M483.2,305.3l0.4-1.7c-0.6,0.6-1.8,2-4.1,2c-0.5,0-1.7,0-2.7-0.9c-0.8-0.7-1.5-1.9-1.5-4.2
			c0-0.5,0-1.3,0.2-2.5c0.1-0.8,0.9-4.6,3.5-6.8c1.1-0.9,2.4-1.4,3.8-1.4c0.7,0,2.8,0.1,3.6,2.2c0.2,0.5,0.3,0.8,0.4,1.8l-1.4,0.3
			c0-0.1,0-0.5-0.1-0.8c-0.3-1.3-1.2-2.2-2.6-2.2c-1.8,0-3.2,1.2-4,2.7c-1.1,1.8-1.9,4.6-1.9,6.7c0,0.2,0,1.2,0.3,2
			c0.2,0.6,0.9,1.9,2.7,1.9c1.8,0,3.3-1.4,3.9-2.9c0.4-0.9,0.5-1.8,0.5-2.1h-3.2l0.3-1.4h4.6l-1.6,7.4H483.2z"/>
		<path fill="#FFFFFF" d="M489.9,305.3h-1.5l3.3-15.3h3.2c0.7,0,1.3,0,2,0.1c0.4,0.1,1.9,0.3,2.6,1.5c0.2,0.3,0.4,0.9,0.4,1.7
			c0,0.8-0.3,2.7-2.1,4c-0.8,0.5-1.4,0.7-1.8,0.8l2.5,7.2h-1.7l-2.4-7c-0.6,0-1.3,0.1-1.9,0c-0.4,0-0.8,0-1.3,0L489.9,305.3z
			 M493.1,297.1c1.7,0,3.4,0,4.6-1.4c0.2-0.3,0.8-1.1,0.8-2.2c0-0.5-0.1-1-0.4-1.3c-0.1-0.2-0.3-0.3-0.7-0.5c-0.7-0.3-1.5-0.4-3-0.4
			l-1.4,0l-1.2,5.8L493.1,297.1z"/>
		<path fill="#FFFFFF" d="M508.5,305.3l-0.3-5h-5l-2.5,5h-1.6l7.7-15.3h2.2l1,15.3H508.5z M507.7,291l-3.9,8.1h4.3L507.7,291z"/>
		<path fill="#FFFFFF" d="M511.6,305.3l3.3-15.3h7.9l-0.2,1.3h-6.4l-1.2,5.3h5.3l-0.3,1.3h-5.3l-1.6,7.4H511.6z"/>
		<path fill="#FFFFFF" d="M521.1,305.3l3.3-15.3h1.5l-3.3,15.3H521.1z"/>
		<path fill="#FFFFFF" d="M526.5,305.3l3.3-15.3h8.4l-0.3,1.2h-6.9l-1.2,5.3h5.3l-0.3,1.3h-5.3l-1.3,6.1h8l-0.3,1.3H526.5z"/>
		<path fill="#FFFFFF" d="M554.5,298.1c-0.2,0.6-0.7,2.2-1.9,3.7c-0.3,0.3-0.6,0.6-0.9,0.9c0.1,0.1,0.2,0.2,0.2,0.3
			c0.6,0.8,1.4,1,1.7,1.1c0.3,0.1,0.4,0.1,0.7,0.1l-0.3,1.3c-0.4,0-0.6,0-0.9-0.1c-1.2-0.2-1.9-0.8-2.7-1.6
			c-0.4,0.4-0.7,0.5-0.9,0.7c-0.5,0.3-1.7,1-3.3,1c-0.6,0-1.2-0.1-1.7-0.3c-1.2-0.5-1.9-1.7-1.9-3c0-0.7,0.2-2,1.3-3.3
			c0.8-0.9,1.9-1.6,3-2.2c-0.1-0.3-0.5-1.5-0.5-2.7c0-0.3,0-0.9,0.3-1.6c0.5-1.5,1.8-2.5,3.4-2.5c0.5,0,0.8,0.1,1,0.2
			c0.9,0.3,1.4,1.2,1.4,2.1c0,0.2,0,0.5-0.2,1c-0.3,1-0.9,1.7-1.7,2.4c-0.7,0.6-1.3,1-2.2,1.5c0.9,2.4,1.7,3.8,2.2,4.8
			c0.2-0.2,0.3-0.3,0.5-0.5c1.1-1.3,1.7-3,1.8-3.4L554.5,298.1z M549.4,302c-0.4-0.8-1.2-2.2-1.9-4.3c-1.3,0.7-2.1,1.5-2.4,2
			c-0.2,0.3-0.4,0.7-0.5,1.1c0,0.1-0.2,0.6-0.2,1c0,0.4,0.1,0.7,0.2,0.9c0.5,1.4,1.8,1.5,2.3,1.5c1.6,0,2.8-1.2,3.2-1.4
			C549.7,302.6,549.5,302.3,549.4,302z M551,293.3c0.1-0.2,0.3-0.6,0.3-1.1c0-0.8-0.4-1.3-1.2-1.3c-0.7,0-1.3,0.4-1.6,1
			c-0.4,0.7-0.4,1.6-0.4,1.8c0,0.4,0.1,1.2,0.2,1.7c0,0.2,0.1,0.3,0.2,0.5C549.5,295.2,550.5,294.5,551,293.3z"/>
		<path fill="#FFFFFF" d="M560.5,305.3l3.3-15.3h7.9l-0.2,1.3H565l-1.2,5.3h5.3l-0.3,1.3h-5.3l-1.6,7.4H560.5z"/>
		<path fill="#FFFFFF" d="M570,305.3l3.3-15.3h1.5l-3.3,15.3H570z"/>
		<path fill="#FFFFFF" d="M575.4,305.3l3.3-15.3h1.5l-3,14h6.4l-0.3,1.3H575.4z"/>
		<path fill="#FFFFFF" d="M595.4,305.3l3.1-14.5l-6.9,14.5h-1.3l-0.8-14.5l-3.1,14.5h-1.4l3.3-15.3h2.5l0.6,13.1l6.2-13.1h2.6
			l-3.3,15.3H595.4z"/>
	</g>
</g>
</svg>
