<?xml version="1.0" encoding="utf-8"?>
<!-- Generator: Adobe Illustrator 18.1.1, SVG Export Plug-In . SVG Version: 6.00 Build 0)  -->
<!DOCTYPE svg PUBLIC "-//W3C//DTD SVG 1.1//EN" "http://www.w3.org/Graphics/SVG/1.1/DTD/svg11.dtd">
<svg version="1.1" id="Layer_1" xmlns="http://www.w3.org/2000/svg" xmlns:xlink="http://www.w3.org/1999/xlink" x="0px" y="0px"
	 viewBox="0 0 60 60" enable-background="new 0 0 60 60" xml:space="preserve">
<path fill="#09181F" d="M34.2,18.3c-4.1,0-7.5,3.4-7.5,7.5c0,1.7,0.6,3.3,1.5,4.5l-2.3,2.3l-0.3-0.3L18,39.9l1.8,1.8l7.6-7.6
	l-0.3-0.3l2.3-2.3c1.3,1.1,3,1.8,4.9,1.8c4.1,0,7.5-3.4,7.5-7.5S38.4,18.3,34.2,18.3z M34.2,31.7c-3.2,0-5.9-2.6-5.9-5.9
	S31,20,34.2,20s5.9,2.6,5.9,5.9S37.5,31.7,34.2,31.7z"/>
</svg>
