<?xml version="1.0" encoding="utf-8"?>
<!-- Generator: Adobe Illustrator 18.1.0, SVG Export Plug-In . SVG Version: 6.00 Build 0)  -->
<svg version="1.1" id="Layer_1" xmlns="http://www.w3.org/2000/svg" xmlns:xlink="http://www.w3.org/1999/xlink" x="0px" y="0px"
	 viewBox="0 0 841.9 595.3" enable-background="new 0 0 841.9 595.3" xml:space="preserve">
<g>
	<g>
		<path fill="#FFFFFF" d="M19.8,704c-0.2-1.5-0.4-2.2-0.7-2.9c-1.5-3.1-4.2-3.3-5.5-3.3c-2.6,0-4,1.5-4.6,2.2
			c-2.4,3.3-2.2,8.4-2.2,9.3c0,0.4,0,4.6,0.9,7.3c0.2,1.1,0.9,2,1.5,2.9c0.2,0.4,1.1,1.3,2.6,1.8c1.1,0.4,2.2,0.4,2.6,0.4
			c1.5,0,2.9-0.4,4-1.5c0-0.4,0.7-1.1,0.9-2.2c0.2-0.9,0.2-1.5,0.2-3.1h-6.2v-5.1h11.7v16.7h-4.4l-0.7-2.6c-0.9,0.9-1.3,1.1-1.8,1.5
			c-1.5,0.9-3.7,1.3-5.7,1.3c-1.1,0-3.7-0.2-6.4-2C0,720.3,0,711.5,0,709.8c0-6.2,2.2-10.1,3.7-12.1c2.4-2.9,6.4-4.4,10.1-4.4
			c4.2,0,8.4,2,10.4,6c0.7,1.1,0.9,2,1.1,4L19.8,704z"/>
		<path fill="#FFFFFF" d="M51.6,693.5v5.3H37.9v8.2h11.2v5.3H37.5v8.4h14.8v5.3H31.1v-32.6h20.5V693.5z"/>
		<path fill="#FFFFFF" d="M69.9,693.5c2.6,0.2,3.7,0.2,4.8,0.9c3.3,1.1,5.7,4.8,5.7,8.6c0,1.1-0.2,4.4-3.1,6.6
			c-0.7,0.4-1.1,0.9-2.4,1.5l6.4,15h-6.4l-6-13.7h-5.3v13.7h-6.2v-32.6H69.9z M63.7,707.3c1.3,0,2.6,0,4.2,0h1.3
			c0.7,0,2.9,0,4.2-1.5c0.2-0.4,0.9-1.3,0.9-2.6c0-0.9-0.2-1.3-0.2-1.8c-0.9-2.2-3.5-2.4-5.5-2.4h-4.6L63.7,707.3z"/>
		<path fill="#FFFFFF" d="M99,693.5c2.6,0.2,3.7,0.2,4.8,0.9c3.3,1.3,5.7,4.8,5.7,8.6c0,1.1-0.2,4.4-3.1,6.6
			c-0.7,0.4-1.1,0.9-2.4,1.5l6.4,15H104l-6-13.7h-5.3v13.7h-6.2v-32.6H99z M92.8,707.3c1.3,0,2.6,0,4.2,0h1.3c0.7,0,2.9,0,4.2-1.5
			c0.2-0.4,0.9-1.3,0.9-2.6c0-0.9-0.2-1.3-0.2-1.8c-0.9-2.2-3.5-2.4-5.5-2.4H93L92.8,707.3z"/>
		<path fill="#FFFFFF" d="M122.3,693.5v32.6h-6.4v-32.6H122.3z"/>
		<path fill="#FFFFFF" d="M149.4,693.5v5.3h-8.6v27.3h-6.4v-27.3h-8.4v-5.3H149.4z"/>
		<path fill="#FFFFFF" d="M179.8,702.9c-0.2-0.9-0.4-1.5-0.9-2.2c-0.7-1.3-2.2-2.2-3.7-2.2c-1.1,0-2,0.4-2.4,0.7
			c-0.4,0.2-1.5,1.3-1.5,3.1c0,0.4,0,1.3,0.7,2c1.1,1.3,2.9,1.8,4.4,2.2c6,1.5,8.4,3.7,9.5,6.8c0.2,0.4,0.4,1.8,0.4,3.3
			c0,0.9,0,3.1-1.3,5.1c-1.3,2.2-4.2,4.8-9.9,4.8c-4.8,0-7.3-2.2-8.6-3.7c-0.4-0.4-1.5-1.8-2-3.3c-0.2-0.4-0.2-1.1-0.4-2.2l6.4-0.9
			c0.7,2.2,0.9,2.9,1.8,3.5c0.7,0.4,1.5,1.1,3.3,1.1c3.7,0,4.8-2.6,4.8-4.2c0-0.9-0.2-1.5-0.4-2c-0.7-1.1-1.8-1.8-4.4-2.6
			c-2-0.7-3.5-0.9-5.3-1.8c-4.6-2.2-5.3-5.7-5.3-7.7c0-0.7,0.2-2.4,1.1-4.4c1.3-1.8,4-5.1,9.9-5.1c0.4,0,2,0,3.3,0.4
			c3.3,1.1,4.8,3.7,5.5,4.6c0.7,1.1,0.9,2.2,1.1,3.5L179.8,702.9z"/>
		<path fill="#FFFFFF" d="M209.8,704.5c0-0.4-0.2-0.9-0.2-1.3c-0.4-2.6-1.8-3.7-2.6-4.4c-1.1-0.7-2.2-0.7-2.9-0.7
			c-4.4,0-5.7,4.4-6,5.5c-0.2,0.9-0.4,2.2-0.7,4.6c0,0.9,0,1.8,0,2.9c0,0.7,0,2,0.2,3.5c0.7,3.3,2.6,7.1,6.4,7.1c0.9,0,2.6-0.2,4-2
			c1.1-1.3,1.5-3.1,2-4.8l6,0.9c-0.2,0.4-0.2,0.9-0.4,1.5c-0.9,3.1-2.2,4.6-3.1,5.7c-1.3,1.3-4.2,3.3-8.8,3.3c-1.5,0-6.2-0.2-9.3-4
			c-1.8-2-4-6.2-4-12.6c0-7.9,3.1-12.1,5.7-14.1c2.2-1.8,5.1-2.6,7.9-2.6c2,0,7.5,0.7,10.6,6.2c0.7,1.1,0.9,2,1.5,4.4L209.8,704.5z"
			/>
		<path fill="#FFFFFF" d="M226.1,693.5v12.8h11v-12.8h6.4v32.6h-6.4v-14.8h-11v14.8h-6.4v-32.6H226.1z"/>
		<path fill="#FFFFFF" d="M263.4,693.5c2.6,0.2,3.7,0.2,4.8,0.9c3.3,1.3,5.7,4.8,5.7,8.6c0,1.1-0.2,4.4-3.1,6.6
			c-0.7,0.4-1.1,0.9-2.4,1.5l6.4,15h-6.4l-6-13.7h-5.3v13.7H251v-32.6H263.4z M257.2,707.3c1.3,0,2.6,0,4.2,0h1.3
			c0.7,0,2.9,0,4.2-1.5c0.2-0.4,0.9-1.3,0.9-2.6c0-0.9-0.2-1.3-0.2-1.8c-0.9-2.2-3.5-2.4-5.5-2.4h-4.6L257.2,707.3z"/>
		<path fill="#FFFFFF" d="M300.2,693.5v5.3h-13.7v8.2h11.2v5.3h-11.5v8.4h14.8v5.3h-21.2v-32.6h20.3V693.5z"/>
		<path fill="#FFFFFF" d="M312.7,693.5v22c0,0.9-0.2,3.7,2.2,5.1c0.4,0.2,1.3,0.7,2.6,0.7c0.4,0,2,0,3.1-1.1c1.8-1.3,2-3.3,2-5.5
			v-21.2h6.4V715c-0.2,3.5-0.7,6.6-3.3,9c-2.4,2-5.5,2.4-8.6,2.4c-0.4,0-2,0-3.3-0.2c-1.5-0.2-5.5-1.5-6.8-6c-0.4-1.1-0.4-2-0.7-4.4
			v-22.5L312.7,693.5L312.7,693.5z"/>
		<path fill="#FFFFFF" d="M348.9,693.5c2.6,0.2,3.7,0.2,4.8,0.9c3.3,1.3,5.7,4.8,5.7,8.6c0,1.1-0.2,4.4-3.1,6.6
			c-0.7,0.4-1.1,0.9-2.4,1.5l6.4,15h-6.6l-6-13.7h-5.1v13.7h-6.2v-32.6H348.9z M342.7,707.3c1.3,0,2.6,0,4.2,0h1.3
			c0.7,0,2.9,0,4.2-1.5c0.2-0.4,0.9-1.3,0.9-2.6c0-0.9-0.2-1.3-0.2-1.8c-0.9-2.2-3.5-2.4-5.5-2.4h-4.8L342.7,707.3L342.7,707.3z"/>
		<path fill="#FFFFFF" d="M379.1,702.9c-0.2-0.9-0.4-1.5-0.9-2.2c-0.7-1.3-2.2-2.2-3.7-2.2c-1.1,0-2,0.4-2.4,0.7
			c-0.4,0.2-1.5,1.3-1.5,3.1c0,0.4,0,1.3,0.7,2c1.1,1.3,2.9,1.8,4.4,2.2c6,1.5,8.4,3.7,9.5,6.8c0.2,0.4,0.4,1.8,0.4,3.3
			c0,0.9,0,3.1-1.3,5.1c-1.3,2.2-4.2,4.8-9.9,4.8c-4.8,0-7.3-2.2-8.6-3.7c-0.4-0.4-1.5-1.8-2-3.3c-0.2-0.4-0.2-1.1-0.4-2.2l6.4-0.9
			c0.7,2.2,0.9,2.9,1.8,3.5c0.7,0.4,1.5,1.1,3.3,1.1c3.7,0,4.8-2.6,4.8-4.2c0-0.9-0.2-1.5-0.4-2c-0.7-1.1-1.8-1.8-4.4-2.6
			c-2-0.7-3.5-0.9-5.3-1.8c-4.6-2.2-5.3-5.7-5.3-7.7c0-0.7,0.2-2.4,1.1-4.4c1.1-2.2,4-5.5,9.9-5.5c0.4,0,2,0,3.3,0.4
			c3.3,1.1,4.8,3.7,5.5,4.6c0.7,1.1,0.9,2.2,1.1,3.5L379.1,702.9z"/>
	</g>
</g>
<g>
	<path fill="#FFFFFF" d="M426.9,726.1l7-32.9h16.9l-0.5,2.7h-13.7l-2.5,11.4h11.4l-0.6,2.9h-11.4l-3.4,15.9H426.9z"/>
	<path fill="#FFFFFF" d="M457.1,726.5c-6.2-1.4-7.6-7.4-7.6-12.7c0-2,0.3-8.1,3.4-13.6c0.5-0.8,1.7-2.8,3.8-4.6
		c2.6-2.1,5.5-3.1,8.8-3.1c2.8,0,5.7,1,7.5,3.3c1.4,1.8,2.7,4.7,2.7,9.6c0,1,0,2.7-0.5,5.2c-0.3,1.8-1.7,9-7,13.2
		c-2.9,2.3-5.8,2.8-7.2,2.9C460.3,726.8,458.8,726.8,457.1,726.5z M466.4,721.5c0.7-0.6,1.8-1.8,2.9-3.6c2-3.5,3-8.4,3-12.4
		c0-5.5-1.6-8.2-4-9.6c-1.5-0.8-2.9-0.8-3.5-0.8c-2.1,0-6,1-8.8,5.6c-2.1,3.6-3.2,8.9-3.2,13c0,0.5-0.1,5,1.8,7.6
		c0.3,0.5,1.1,1.4,2.6,2c1.6,0.7,3.1,0.6,3.7,0.6C461.9,723.8,464.2,723.4,466.4,721.5z"/>
	<path fill="#FFFFFF" d="M479.4,726.1l6.5-30.2h-8.9l0.5-2.7h20.9l-0.5,2.7h-8.7l-6.5,30.2H479.4z"/>
	<path fill="#FFFFFF" d="M503.7,726.5c-6.2-1.4-7.6-7.4-7.6-12.7c0-2,0.3-8.1,3.4-13.6c0.5-0.8,1.7-2.8,3.8-4.6
		c2.6-2.1,5.5-3.1,8.8-3.1c2.8,0,5.7,1,7.5,3.3c1.4,1.8,2.7,4.7,2.7,9.6c0,1,0,2.7-0.5,5.2c-0.3,1.8-1.7,9-7,13.2
		c-2.9,2.3-5.8,2.8-7.2,2.9C506.9,726.8,505.4,726.8,503.7,726.5z M513,721.5c0.7-0.6,1.8-1.8,2.9-3.6c2-3.5,3-8.4,3-12.4
		c0-5.5-1.6-8.2-4-9.6c-1.5-0.8-2.9-0.8-3.5-0.8c-2.1,0-6,1-8.8,5.6c-2.1,3.6-3.2,8.9-3.2,13c0,0.5-0.1,5,1.8,7.6
		c0.3,0.5,1.1,1.4,2.6,2c1.6,0.7,3.1,0.6,3.7,0.6C508.5,723.8,510.8,723.4,513,721.5z"/>
	<path fill="#FFFFFF" d="M542.9,726.1l0.8-3.7c-1.2,1.4-3.8,4.3-8.8,4.3c-1,0-3.5-0.1-5.7-2c-1.7-1.4-3.3-4.1-3.3-9.1
		c0-1,0-2.8,0.5-5.3c0.3-1.7,2-9.9,7.4-14.6c2.3-2,5.1-3,8.2-3c1.4,0,5.9,0.3,7.7,4.7c0.4,1,0.6,1.8,0.8,3.9l-3,0.7
		c0-0.1-0.1-1.1-0.2-1.8c-0.7-2.8-2.5-4.7-5.5-4.7c-3.8,0-6.8,2.6-8.6,5.7c-2.4,3.9-4.1,9.8-4.1,14.4c0,0.5,0,2.6,0.7,4.4
		c0.5,1.3,1.9,4,5.7,4c3.9,0,7-2.9,8.4-6.3c0.8-1.9,1.1-3.8,1.2-4.4h-6.8l0.7-3h9.9l-3.4,15.9H542.9z"/>
	<path fill="#FFFFFF" d="M557.3,726.1h-3.2l7-32.9h6.9c1.4,0,2.8,0,4.3,0.2c0.8,0.1,4,0.6,5.6,3.3c0.3,0.6,0.9,1.9,0.9,3.7
		c0,1.7-0.6,5.9-4.6,8.5c-1.7,1.1-3,1.5-3.8,1.7l5.3,15.5h-3.5l-5.1-15.1c-1.4,0.1-2.7,0.1-4,0.1c-0.9,0-1.8,0-2.7-0.1L557.3,726.1z
		 M564,708.4c3.6,0.1,7.2,0.1,9.8-3c0.5-0.6,1.8-2.3,1.8-4.7c0-1-0.3-2.1-0.9-2.9c-0.2-0.3-0.6-0.7-1.4-1.1
		c-1.4-0.7-3.2-0.8-6.5-0.8l-2.9,0.1l-2.6,12.3L564,708.4z"/>
	<path fill="#FFFFFF" d="M597.1,726.1l-0.7-10.8h-10.8l-5.4,10.8h-3.4l16.5-32.9h4.7l2.2,32.9H597.1z M595.4,695.3l-8.4,17.3h9.3
		L595.4,695.3z"/>
	<path fill="#FFFFFF" d="M603.7,726.1l7-32.9h16.9l-0.5,2.7h-13.7l-2.5,11.4h11.4l-0.6,2.9h-11.4l-3.4,15.9H603.7z"/>
	<path fill="#FFFFFF" d="M624,726.1l7-32.9h3.2l-7,32.9H624z"/>
	<path fill="#FFFFFF" d="M635.7,726.1l7-32.9h18l-0.6,2.7h-14.7l-2.5,11.5h11.3l-0.6,2.8h-11.3l-2.8,13.1h17.1l-0.7,2.8H635.7z"/>
	<path fill="#FFFFFF" d="M695.7,710.5c-0.4,1.3-1.6,4.8-4.1,7.8c-0.6,0.7-1.3,1.4-1.9,2c0.1,0.2,0.3,0.5,0.5,0.7
		c1.3,1.6,3.1,2.2,3.7,2.3s0.9,0.1,1.6,0.2l-0.6,2.7c-0.8,0-1.3,0-2-0.1c-2.5-0.4-4.1-1.7-5.7-3.5c-0.9,0.8-1.4,1.2-2,1.5
		c-1,0.6-3.7,2.1-7.2,2.1c-1.2,0-2.5-0.2-3.5-0.7c-2.6-1.1-4.1-3.7-4.1-6.4c0-1.5,0.4-4.4,2.8-7.1c1.8-2,4.1-3.4,6.4-4.7
		c-0.2-0.7-1-3.2-1-5.7c0-0.6,0-1.9,0.6-3.4c1.1-3.2,3.8-5.4,7.3-5.4c1.1,0,1.8,0.2,2.2,0.4c2,0.7,3.1,2.5,3.1,4.6
		c0,0.3,0,1.2-0.3,2.1c-0.7,2.1-2,3.7-3.6,5.2c-1.5,1.3-2.8,2.2-4.6,3.2c1.9,5.1,3.5,8.2,4.7,10.3c0.3-0.4,0.7-0.7,1-1.1
		c2.3-2.7,3.6-6.3,3.9-7.3L695.7,710.5z M684.7,718.9c-0.9-1.6-2.5-4.8-4.1-9.2c-2.8,1.5-4.5,3.2-5.2,4.3c-0.5,0.7-0.9,1.6-1.2,2.4
		c-0.1,0.2-0.3,1.3-0.3,2.1c0,0.9,0.2,1.6,0.3,2c1.1,3,3.8,3.2,4.9,3.2c3.4,0,6.1-2.5,6.8-3C685.4,720.1,685,719.5,684.7,718.9z
		 M688.2,700.4c0.1-0.3,0.6-1.4,0.6-2.4c0-1.6-0.9-2.8-2.6-2.8c-1.5,0-2.8,0.9-3.4,2.1c-0.8,1.4-0.8,3.4-0.8,3.8
		c0,0.9,0.2,2.7,0.4,3.6c0.1,0.4,0.2,0.7,0.3,1.1C685,704.3,687.1,702.9,688.2,700.4z"/>
	<path fill="#FFFFFF" d="M708.5,726.1l7-32.9h16.9l-0.5,2.7h-13.7l-2.5,11.4h11.4l-0.6,2.9h-11.4l-3.4,15.9H708.5z"/>
	<path fill="#FFFFFF" d="M728.9,726.1l7-32.9h3.2l-7,32.9H728.9z"/>
	<path fill="#FFFFFF" d="M740.6,726.1l7-32.9h3.3l-6.4,30h13.7l-0.7,2.9H740.6z"/>
	<path fill="#FFFFFF" d="M783.4,726.1l6.6-31.1l-14.8,31.1h-2.8l-1.7-31.1l-6.7,31.1h-3l7-32.9h5.4l1.4,28.1l13.3-28.1h5.5l-7,32.9
		H783.4z"/>
</g>
</svg>
