<?xml version="1.0" encoding="utf-8"?>
<!-- Generator: Adobe Illustrator 18.1.1, SVG Export Plug-In . SVG Version: 6.00 Build 0)  -->
<!DOCTYPE svg PUBLIC "-//W3C//DTD SVG 1.1//EN" "http://www.w3.org/Graphics/SVG/1.1/DTD/svg11.dtd">
<svg version="1.1" id="Layer_1" xmlns="http://www.w3.org/2000/svg" xmlns:xlink="http://www.w3.org/1999/xlink" x="0px" y="0px"
	 viewBox="0 411.9 382 18" enable-background="new 0 411.9 382 18" xml:space="preserve">
<g>
	<g>
		<path fill="#FFFFFF" d="M9,418.4c-0.1-0.7-0.2-1-0.3-1.3c-0.7-1.4-1.9-1.5-2.5-1.5c-1.2,0-1.8,0.7-2.1,1c-1.1,1.5-1,3.8-1,4.2
			c0,0.2,0,2.1,0.4,3.3c0.1,0.5,0.4,0.9,0.7,1.3c0.1,0.2,0.5,0.6,1.2,0.8c0.5,0.2,1,0.2,1.2,0.2c0.7,0,1.3-0.2,1.8-0.7
			c0-0.2,0.3-0.5,0.4-1c0.1-0.4,0.1-0.7,0.1-1.4H6.1V421h5.3v7.6h-2l-0.3-1.2c-0.4,0.4-0.6,0.5-0.8,0.7c-0.7,0.4-1.7,0.6-2.6,0.6
			c-0.5,0-1.7-0.1-2.9-0.9c-2.8-2-2.8-6-2.8-6.8c0-2.8,1-4.6,1.7-5.5c1.1-1.3,2.9-2,4.6-2c1.9,0,3.8,0.9,4.7,2.7
			c0.3,0.5,0.4,0.9,0.5,1.8L9,418.4z"/>
		<path fill="#FFFFFF" d="M23.4,413.6v2.4h-6.2v3.7h5.1v2.4H17v3.8h6.7v2.4h-9.6v-14.8H23.4z"/>
		<path fill="#FFFFFF" d="M31.7,413.6c1.2,0.1,1.7,0.1,2.2,0.4c1.5,0.5,2.6,2.2,2.6,3.9c0,0.5-0.1,2-1.4,3c-0.3,0.2-0.5,0.4-1.1,0.7
			l2.9,6.8h-2.9l-2.7-6.2h-2.4v6.2h-2.8v-14.8H31.7z M28.9,419.9c0.6,0,1.2,0,1.9,0h0.6c0.3,0,1.3,0,1.9-0.7
			c0.1-0.2,0.4-0.6,0.4-1.2c0-0.4-0.1-0.6-0.1-0.8c-0.4-1-1.6-1.1-2.5-1.1H29L28.9,419.9z"/>
		<path fill="#FFFFFF" d="M44.9,413.6c1.2,0.1,1.7,0.1,2.2,0.4c1.5,0.6,2.6,2.2,2.6,3.9c0,0.5-0.1,2-1.4,3c-0.3,0.2-0.5,0.4-1.1,0.7
			l2.9,6.8h-2.9l-2.7-6.2h-2.4v6.2h-2.8v-14.8H44.9z M42.1,419.9c0.6,0,1.2,0,1.9,0h0.6c0.3,0,1.3,0,1.9-0.7
			c0.1-0.2,0.4-0.6,0.4-1.2c0-0.4-0.1-0.6-0.1-0.8c-0.4-1-1.6-1.1-2.5-1.1h-2.1L42.1,419.9z"/>
		<path fill="#FFFFFF" d="M55.5,413.6v14.8h-2.9v-14.8H55.5z"/>
		<path fill="#FFFFFF" d="M67.8,413.6v2.4h-3.9v12.4H61V416h-3.8v-2.4H67.8z"/>
		<path fill="#FFFFFF" d="M81.6,417.9c-0.1-0.4-0.2-0.7-0.4-1c-0.3-0.6-1-1-1.7-1c-0.5,0-0.9,0.2-1.1,0.3c-0.2,0.1-0.7,0.6-0.7,1.4
			c0,0.2,0,0.6,0.3,0.9c0.5,0.6,1.3,0.8,2,1c2.7,0.7,3.8,1.7,4.3,3.1c0.1,0.2,0.2,0.8,0.2,1.5c0,0.4,0,1.4-0.6,2.3
			c-0.6,1-1.9,2.2-4.5,2.2c-2.2,0-3.3-1-3.9-1.7c-0.2-0.2-0.7-0.8-0.9-1.5c-0.1-0.2-0.1-0.5-0.2-1l2.9-0.4c0.3,1,0.4,1.3,0.8,1.6
			c0.3,0.2,0.7,0.5,1.5,0.5c1.7,0,2.2-1.2,2.2-1.9c0-0.4-0.1-0.7-0.2-0.9c-0.3-0.5-0.8-0.8-2-1.2c-0.9-0.3-1.6-0.4-2.4-0.8
			c-2.1-1-2.4-2.6-2.4-3.5c0-0.3,0.1-1.1,0.5-2c0.6-0.8,1.8-2.3,4.5-2.3c0.2,0,0.9,0,1.5,0.2c1.5,0.5,2.2,1.7,2.5,2.1
			c0.3,0.5,0.4,1,0.5,1.6L81.6,417.9z"/>
		<path fill="#FFFFFF" d="M95.2,418.6c0-0.2-0.1-0.4-0.1-0.6c-0.2-1.2-0.8-1.7-1.2-2c-0.5-0.3-1-0.3-1.3-0.3c-2,0-2.6,2-2.7,2.5
			c-0.1,0.4-0.2,1-0.3,2.1c0,0.4,0,0.8,0,1.3c0,0.3,0,0.9,0.1,1.6c0.3,1.5,1.2,3.2,2.9,3.2c0.4,0,1.2-0.1,1.8-0.9
			c0.5-0.6,0.7-1.4,0.9-2.2l2.7,0.4c-0.1,0.2-0.1,0.4-0.2,0.7c-0.4,1.4-1,2.1-1.4,2.6c-0.6,0.6-1.9,1.5-4,1.5
			c-0.7,0-2.8-0.1-4.2-1.8c-0.8-0.9-1.8-2.8-1.8-5.7c0-3.6,1.4-5.5,2.6-6.4c1-0.8,2.3-1.2,3.6-1.2c0.9,0,3.4,0.3,4.8,2.8
			c0.3,0.5,0.4,0.9,0.7,2L95.2,418.6z"/>
		<path fill="#FFFFFF" d="M102.6,413.6v5.8h5v-5.8h2.9v14.8h-2.9v-6.7h-5v6.7h-2.9v-14.8H102.6z"/>
		<path fill="#FFFFFF" d="M119.5,413.6c1.2,0.1,1.7,0.1,2.2,0.4c1.5,0.6,2.6,2.2,2.6,3.9c0,0.5-0.1,2-1.4,3
			c-0.3,0.2-0.5,0.4-1.1,0.7l2.9,6.8h-2.9l-2.7-6.2h-2.4v6.2h-2.8v-14.8H119.5z M116.7,419.9c0.6,0,1.2,0,1.9,0h0.6
			c0.3,0,1.3,0,1.9-0.7c0.1-0.2,0.4-0.6,0.4-1.2c0-0.4-0.1-0.6-0.1-0.8c-0.4-1-1.6-1.1-2.5-1.1h-2.1L116.7,419.9z"/>
		<path fill="#FFFFFF" d="M136.2,413.6v2.4H130v3.7h5.1v2.4h-5.2v3.8h6.7v2.4H127v-14.8H136.2z"/>
		<path fill="#FFFFFF" d="M141.9,413.6v10c0,0.4-0.1,1.7,1,2.3c0.2,0.1,0.6,0.3,1.2,0.3c0.2,0,0.9,0,1.4-0.5
			c0.8-0.6,0.9-1.5,0.9-2.5v-9.6h2.9v9.8c-0.1,1.6-0.3,3-1.5,4.1c-1.1,0.9-2.5,1.1-3.9,1.1c-0.2,0-0.9,0-1.5-0.1
			c-0.7-0.1-2.5-0.7-3.1-2.7c-0.2-0.5-0.2-0.9-0.3-2v-10.2H141.9z"/>
		<path fill="#FFFFFF" d="M158.3,413.6c1.2,0.1,1.7,0.1,2.2,0.4c1.5,0.6,2.6,2.2,2.6,3.9c0,0.5-0.1,2-1.4,3
			c-0.3,0.2-0.5,0.4-1.1,0.7l2.9,6.8h-3l-2.7-6.2h-2.3v6.2h-2.8v-14.8H158.3z M155.5,419.9c0.6,0,1.2,0,1.9,0h0.6
			c0.3,0,1.3,0,1.9-0.7c0.1-0.2,0.4-0.6,0.4-1.2c0-0.4-0.1-0.6-0.1-0.8c-0.4-1-1.6-1.1-2.5-1.1h-2.2V419.9z"/>
		<path fill="#FFFFFF" d="M172,417.9c-0.1-0.4-0.2-0.7-0.4-1c-0.3-0.6-1-1-1.7-1c-0.5,0-0.9,0.2-1.1,0.3c-0.2,0.1-0.7,0.6-0.7,1.4
			c0,0.2,0,0.6,0.3,0.9c0.5,0.6,1.3,0.8,2,1c2.7,0.7,3.8,1.7,4.3,3.1c0.1,0.2,0.2,0.8,0.2,1.5c0,0.4,0,1.4-0.6,2.3
			c-0.6,1-1.9,2.2-4.5,2.2c-2.2,0-3.3-1-3.9-1.7c-0.2-0.2-0.7-0.8-0.9-1.5c-0.1-0.2-0.1-0.5-0.2-1l2.9-0.4c0.3,1,0.4,1.3,0.8,1.6
			c0.3,0.2,0.7,0.5,1.5,0.5c1.7,0,2.2-1.2,2.2-1.9c0-0.4-0.1-0.7-0.2-0.9c-0.3-0.5-0.8-0.8-2-1.2c-0.9-0.3-1.6-0.4-2.4-0.8
			c-2.1-1-2.4-2.6-2.4-3.5c0-0.3,0.1-1.1,0.5-2c0.5-1,1.8-2.5,4.5-2.5c0.2,0,0.9,0,1.5,0.2c1.5,0.5,2.2,1.7,2.5,2.1
			c0.3,0.5,0.4,1,0.5,1.6L172,417.9z"/>
	</g>
	<g>
		<path fill="#FFFFFF" d="M195.2,428.4h-1.5l3.1-14.9h3c1.5,0,2.2,0.1,2.9,0.4c0.7,0.3,2,1,2,2.9c0,1.8-1,3.5-2.7,4.2
			c-1.6,0.7-3.8,0.7-5.5,0.6L195.2,428.4z M198.1,420.5c0.7,0,1.4,0,2.1-0.1c0.4-0.1,1.6-0.2,2.4-1.2c0.7-0.8,0.8-1.7,0.8-2.1
			c0-1.2-0.7-1.7-1.2-1.9c-0.7-0.3-1.4-0.3-2.9-0.4h-1.2l-1.2,5.7H198.1z"/>
		<path fill="#FFFFFF" d="M212.2,428.4l1.6-7.5h-6.5l-1.5,7.5h-1.5l3.1-14.9h1.5l-1.3,6.2h6.4l1.3-6.2h1.5l-3.1,14.9H212.2z"/>
		<path fill="#FFFFFF" d="M221.5,428.6c-2.8-0.6-3.4-3.3-3.4-5.7c0-0.9,0.1-3.7,1.5-6.1c0.2-0.4,0.8-1.3,1.7-2.1
			c1.2-0.9,2.5-1.4,3.9-1.4c1.3,0,2.6,0.5,3.4,1.5c0.7,0.8,1.2,2.1,1.2,4.3c0,0.5,0,1.2-0.2,2.3c-0.1,0.8-0.8,4.1-3.2,6
			c-1.3,1-2.6,1.3-3.3,1.3C223,428.7,222.3,428.8,221.5,428.6z M225.7,426.4c0.3-0.3,0.8-0.8,1.3-1.6c0.9-1.6,1.4-3.8,1.4-5.6
			c0-2.5-0.7-3.7-1.8-4.3c-0.7-0.4-1.3-0.4-1.6-0.4c-1,0-2.7,0.4-3.9,2.5c-1,1.6-1.4,4-1.4,5.9c0,0.2,0,2.2,0.8,3.4
			c0.1,0.2,0.5,0.6,1.2,0.9c0.7,0.3,1.4,0.3,1.7,0.3C223.7,427.4,224.7,427.2,225.7,426.4z"/>
		<path fill="#FFFFFF" d="M231.6,428.4l2.9-13.7h-4l0.2-1.2h9.5l-0.2,1.2H236l-2.9,13.7H231.6z"/>
		<path fill="#FFFFFF" d="M242.6,428.6c-2.8-0.6-3.4-3.3-3.4-5.7c0-0.9,0.1-3.7,1.5-6.1c0.2-0.4,0.8-1.3,1.7-2.1
			c1.2-0.9,2.5-1.4,3.9-1.4c1.3,0,2.6,0.5,3.4,1.5c0.7,0.8,1.2,2.1,1.2,4.3c0,0.5,0,1.2-0.2,2.3c-0.1,0.8-0.8,4.1-3.2,6
			c-1.3,1-2.6,1.3-3.3,1.3C244.2,428.7,243.4,428.8,242.6,428.6z M246.9,426.4c0.3-0.3,0.8-0.8,1.3-1.6c0.9-1.6,1.4-3.8,1.4-5.6
			c0-2.5-0.7-3.7-1.8-4.3c-0.7-0.4-1.3-0.4-1.6-0.4c-1,0-2.7,0.4-3.9,2.5c-1,1.6-1.4,4-1.4,5.9c0,0.2,0,2.2,0.8,3.4
			c0.1,0.2,0.5,0.6,1.2,0.9c0.7,0.3,1.4,0.3,1.7,0.3C244.9,427.4,245.9,427.2,246.9,426.4z"/>
		<path fill="#FFFFFF" d="M260.5,428.4l0.4-1.7c-0.5,0.6-1.7,1.9-3.9,1.9c-0.5,0-1.6,0-2.6-0.9c-0.8-0.7-1.5-1.8-1.5-4.1
			c0-0.5,0-1.3,0.2-2.4c0.1-0.8,0.9-4.5,3.3-6.7c1-0.9,2.3-1.4,3.7-1.4c0.7,0,2.7,0.1,3.5,2.1c0.2,0.5,0.3,0.8,0.4,1.7l-1.4,0.5
			c0-0.1,0-0.5-0.1-0.8c-0.3-1.3-1.1-2.1-2.5-2.1c-1.7,0-3,1.2-3.9,2.6c-1.1,1.8-1.8,4.4-1.8,6.5c0,0.2,0,1.2,0.3,2
			c0.2,0.6,0.8,1.8,2.6,1.8c1.7,0,3.1-1.3,3.8-2.8c0.4-0.8,0.5-1.7,0.5-2h-3l0.3-1.3h4.5l-1.5,7.3h-1.3V428.4z"/>
		<path fill="#FFFFFF" d="M267,428.4h-1.4l3.1-14.9h3.1c0.6,0,1.3,0,1.9,0.1c0.4,0.1,1.8,0.3,2.5,1.5c0.1,0.3,0.4,0.8,0.4,1.7
			c0,0.8-0.3,2.6-2.1,3.8c-0.8,0.5-1.4,0.7-1.7,0.8l2.4,7.1h-1.6l-2.3-6.9c-0.6,0-1.2,0.1-1.8,0c-0.4,0-0.8,0-1.2,0L267,428.4z
			 M270.1,420.5c1.6,0,3.3,0,4.4-1.3c0.2-0.3,0.8-1,0.8-2.1c0-0.5-0.1-0.9-0.4-1.3c-0.1-0.1-0.3-0.3-0.7-0.5
			c-0.7-0.3-1.4-0.4-2.9-0.4h-1.3l-1.2,5.6H270.1z"/>
		<path fill="#FFFFFF" d="M285.1,428.4l-0.3-4.9h-4.9l-2.4,4.9h-1.5l7.5-14.9h2.1l1,14.9H285.1z M284.3,414.5l-3.8,7.9h4.2
			L284.3,414.5z"/>
		<path fill="#FFFFFF" d="M289.5,428.4H288l3.1-14.9h3c1.5,0,2.2,0.1,2.9,0.4c0.7,0.3,2,1,2,2.9c0,1.8-1,3.5-2.7,4.2
			c-1.6,0.7-3.8,0.7-5.5,0.6L289.5,428.4z M292.4,420.5c0.7,0,1.4,0,2.1-0.1c0.4-0.1,1.6-0.2,2.4-1.2c0.7-0.8,0.8-1.7,0.8-2.1
			c0-1.2-0.7-1.7-1.2-1.9c-0.7-0.3-1.4-0.3-2.9-0.4h-1.2l-1.2,5.7H292.4z"/>
		<path fill="#FFFFFF" d="M306.6,428.4l1.6-7.5h-6.5l-1.5,7.5h-1.6l3.1-14.9h1.5l-1.3,6.2h6.4l1.3-6.2h1.5l-3.1,14.9H306.6z"/>
		<path fill="#FFFFFF" d="M313.9,428.4l1.3-6.2l-2.6-8.8h1.6l2,7.4l5.1-7.4h1.6l-6.2,8.8l-1.3,6.2H313.9z"/>
		<path fill="#FFFFFF" d="M337.8,421.4c-0.2,0.6-0.7,2.1-1.8,3.5c-0.3,0.3-0.6,0.6-0.8,0.9c0.1,0.1,0.1,0.2,0.2,0.3
			c0.6,0.7,1.4,1,1.7,1c0.3,0,0.4,0.1,0.7,0.1l-0.3,1.2c-0.4,0-0.6,0-0.9-0.1c-1.1-0.2-1.8-0.8-2.6-1.6c-0.4,0.4-0.7,0.5-0.9,0.7
			c-0.4,0.3-1.7,1-3.2,1c-0.5,0-1.1-0.1-1.6-0.3c-1.2-0.5-1.8-1.7-1.8-2.9c0-0.7,0.2-2,1.3-3.2c0.8-0.9,1.8-1.6,2.9-2.1
			c-0.1-0.3-0.5-1.4-0.5-2.6c0-0.3,0-0.9,0.3-1.6c0.5-1.4,1.7-2.4,3.3-2.4c0.5,0,0.8,0.1,1,0.2c0.9,0.3,1.4,1.1,1.4,2.1
			c0,0.1,0,0.5-0.1,0.9c-0.3,1-0.9,1.7-1.6,2.3c-0.7,0.6-1.3,1-2.1,1.4c0.9,2.3,1.6,3.7,2.1,4.6c0.1-0.2,0.3-0.3,0.4-0.5
			c1-1.2,1.6-2.9,1.8-3.3L337.8,421.4z M332.7,425.2c-0.4-0.7-1.1-2.1-1.8-4.1c-1.3,0.7-2,1.4-2.4,1.9c-0.2,0.3-0.4,0.7-0.5,1.1
			c0,0.1-0.1,0.6-0.1,1c0,0.4,0.1,0.7,0.1,0.9c0.5,1.3,1.7,1.4,2.2,1.4c1.5,0,2.8-1.1,3-1.4C333.1,425.7,332.9,425.5,332.7,425.2z
			 M334.3,416.8c0.1-0.1,0.3-0.6,0.3-1.1c0-0.7-0.4-1.3-1.2-1.3c-0.7,0-1.3,0.4-1.6,1c-0.4,0.6-0.4,1.6-0.4,1.7
			c0,0.4,0.1,1.2,0.2,1.6c0,0.2,0.1,0.3,0.1,0.5C332.9,418.6,333.8,418,334.3,416.8z"/>
		<path fill="#FFFFFF" d="M343.6,428.4l3.1-14.9h7.7l-0.2,1.2h-6.2l-1.1,5.1h5.1l-0.3,1.3h-5.1l-1.5,7.3H343.6z"/>
		<path fill="#FFFFFF" d="M352.9,428.4l3.1-14.9h1.4l-3.2,14.9C354.2,428.4,352.9,428.4,352.9,428.4z"/>
		<path fill="#FFFFFF" d="M358.1,428.4l3.1-14.9h1.5l-2.9,13.6h6.2l-0.3,1.3H358.1z"/>
		<path fill="#FFFFFF" d="M377.6,428.4l3-14.1l-6.8,14.1h-1.3l-0.8-14.1l-3,14.1h-1.4l3.1-14.9h2.4l0.6,12.8l6-12.8h2.5l-3.2,14.9
			H377.6z"/>
	</g>
</g>
</svg>
